<?xml version="1.0" encoding="UTF-8"?>
<svg id="Layer_2" data-name="Layer 2" xmlns="http://www.w3.org/2000/svg" viewBox="0 0 140.83 162.61">
  <defs>
    <style>
      .cls-1 {
        fill: #3a8bd6;
      }

      .cls-2 {
        fill: #0069c8;
      }

      .cls-3 {
        fill: #87b0e4;
      }

      .cls-4 {
        fill: #9674ce;
      }
    </style>
  </defs>
  <g id="Layer_1-2" data-name="Layer 1">
    <g>
      <path class="cls-3" d="M70.42,121.76l-35.03-20.23v-40.45l35.03-20.23,35.03,20.23v40.45l-35.03,20.23ZM43.25,96.99l27.16,15.68,27.16-15.68v-31.37l-27.16-15.68-27.16,15.68v31.37Z"/>
      <path class="cls-4" d="M113.21,119.03c-.02-.24-.03-.49-.05-.73-.98.09-2.05.17-3.2.24-1.48.1-3.03.2-4.65.37,0,.21.02.43.04.63.18,2.76.3,5.15.13,7.26,1.73-.17,3.41-.29,5.03-.4.98-.06,1.94-.13,2.9-.21.11-2.46-.05-4.89-.2-7.16Z"/>
      <path class="cls-1" d="M140.83,40.66v33.74c0,10.23-4.39,15.5-9.59,19.21-1.9,1.36-3.9,2.52-5.84,3.63-.31.17-.61.35-.92.53-3.64,2.1-7.02,4.2-9.33,7.57-2.48,3.62-2.31,7.96-1.99,12.96-.98.09-2.05.17-3.2.24-1.48.1-3.03.2-4.65.37-.37-5.75-.65-12.19,3.35-18.02,3.37-4.92,8.04-7.73,12.25-10.16.2-.11.39-.22.57-.33,2.3-1.32,4.38-2.51,6.11-3.89,3.3-2.64,5.37-5.94,5.37-12.11v-29.2L70.42,9.09,7.87,45.2v72.21l62.56,36.12c5.67-3.24,22.06-12.62,28.42-16.44,4.71-2.83,6.28-5.99,6.64-10.29,1.73-.17,3.41-.29,5.03-.4.98-.06,1.94-.13,2.9-.21-.28,6.21-2.28,12.71-10.5,17.65-7.78,4.68-30.31,17.53-30.54,17.66l-1.96,1.12L0,121.96V40.66L70.42,0l70.41,40.66Z"/>
      <path class="cls-2" d="M131.24,93.6c-1.9,1.36-3.9,2.52-5.84,3.63-.31.17-.61.35-.92.53,2.45,5.28,3.32,9.39.89,13.98-2.63,4.95-5.89,5.99-12.21,6.56-.98.09-2.05.17-3.2.24-1.48.1-3.03.2-4.65.37-6.2.59-13.45,1.92-21.51,6.46-3.47,1.95-10.19,5.86-13.52,7.81l-44.92-25.93v-51.88l44.92-25.94,44.93,25.94v16.44c0,7.27,2.83,13.44,5.68,18.92.2-.11.39-.22.57-.33,2.3-1.32,4.38-2.51,6.11-3.89-2.38-4.64-4.49-9.45-4.49-14.7v-20.98l-52.8-30.49-52.8,30.49v60.97l52.81,30.5,1.98-1.16c.1-.06,10.73-6.28,15.38-8.91,6.52-3.67,12.43-4.86,17.81-5.42,1.73-.17,3.41-.29,5.03-.4.98-.06,1.94-.13,2.9-.21,7.44-.62,14.29-2.05,18.92-10.75,4.26-8.03,2.06-15.27-1.08-21.83Z"/>
    </g>
  </g>
</svg>