<?xml version="1.0" encoding="UTF-8"?>
<svg id="Layer_2" data-name="Layer 2" xmlns="http://www.w3.org/2000/svg" viewBox="0 0 286.1 86.89">
  <defs>
    <style>
      .cls-1 {
        fill: #3a8bd6;
      }

      .cls-2 {
        fill: #b9a0de;
      }

      .cls-3 {
        fill: #7049bc;
      }

      .cls-4 {
        fill: #9674ce;
      }
    </style>
  </defs>
  <g id="Layer_1-2" data-name="Layer 1">
    <g>
      <g>
        <g>
          <path class="cls-3" d="M113.46,78.86l11.14-30.61c.04-.13.15-.17.26-.17h3.76c.11,0,.22.04.26.17l11.14,30.61c.04.15-.02.24-.17.24h-3.01c-.11,0-.22-.04-.26-.17l-2.57-7.16c-.04-.13-.15-.17-.26-.17h-14.02c-.11,0-.22.04-.26.17l-2.57,7.16c-.04.13-.15.17-.26.17h-3.01c-.15,0-.22-.09-.17-.24ZM120.79,68.82h11.9c.15,0,.22-.09.17-.24l-5.97-16.68c-.06-.17-.24-.17-.3,0l-5.97,16.68c-.04.15.02.24.17.24Z"/>
          <path class="cls-3" d="M141.69,68.39c0-6.68,4.11-11.1,10.28-11.1,4.91,0,8.74,2.9,9.45,7.83.02.15-.09.24-.22.24h-2.53c-.13,0-.19-.06-.24-.19-.63-3.2-3.09-5.19-6.42-5.19-4.43,0-7.2,3.24-7.2,8.42s2.77,8.48,7.18,8.48c3.31,0,5.78-1.97,6.43-5.13.04-.13.11-.19.24-.19h2.51c.13,0,.22.09.19.24-.76,4.89-4.63,7.74-9.39,7.74-6.17,0-10.28-4.39-10.28-11.14Z"/>
          <path class="cls-3" d="M164.15,73.13c0-3.87,2.96-6.38,7.87-6.38h7.96c.13,0,.22-.09.22-.22v-1.56c0-3.31-2.03-5.08-5.88-5.08-3.4,0-5.47,1.45-6.08,4.33-.02.13-.11.19-.24.19h-2.75c-.15,0-.22-.09-.19-.24.76-4.28,3.92-6.88,9.26-6.88s8.96,2.79,8.96,7.85v10.28c0,.71.37,1.08,1.08,1.08h1.08c.13,0,.22.09.22.22v2.16c0,.13-.09.22-.22.22h-2.19c-1.8,0-2.81-.78-2.94-2.47-.02-.19-.09-.24-.15-.13-1.47,2.03-3.92,3.03-7.33,3.03-5.34,0-8.67-2.4-8.67-6.4ZM180.24,70.08v-.48c0-.13-.09-.22-.22-.22h-7.77c-3.12,0-4.95,1.38-4.95,3.7s2.08,3.87,5.78,3.87c4.67,0,7.16-2.42,7.16-6.88Z"/>
          <path class="cls-3" d="M186.86,68.43c0-6.88,4.05-11.14,9.97-11.14,2.94,0,5.6,1.19,7.16,3.27.13.17.26.11.26-.09v-12.18c0-.13.09-.22.22-.22h2.7c.13,0,.22.09.22.22v30.59c0,.13-.09.22-.22.22h-2.42c-.13,0-.19-.04-.22-.19l-.39-2.75c-.02-.19-.15-.24-.26-.09-1.51,2.18-4.15,3.46-7.12,3.46-5.82,0-9.91-4.2-9.91-11.1ZM204.38,68.43c0-5.13-2.81-8.42-7.23-8.42s-7.18,3.29-7.18,8.42,2.81,8.39,7.16,8.39,7.25-3.31,7.25-8.39Z"/>
          <path class="cls-3" d="M210.87,68.41c0-6.64,4.24-11.12,10.34-11.12s9.78,4.18,9.8,11.03l-.04.84c0,.15-.09.22-.22.22h-16.61c-.13,0-.22.09-.19.24.39,4.56,3.07,7.33,7.12,7.33,2.9,0,5.21-1.28,6.34-4.52.04-.11.15-.17.26-.17h2.66c.15,0,.24.11.19.28-1.38,4.95-4.95,6.99-9.48,6.99-6.23,0-10.17-4.46-10.17-11.12ZM214.22,66.75h13.5c.13,0,.22-.09.19-.24-.41-4.09-2.94-6.62-6.66-6.62-3.98,0-6.62,2.57-7.23,6.62-.04.15.07.24.19.24Z"/>
          <path class="cls-3" d="M234.45,78.88v-20.92c0-.13.09-.22.22-.22h2.47c.13,0,.22.06.24.19l.26,1.56c.02.17.15.24.28.09,1.3-1.41,3.25-2.29,5.8-2.29,2.73,0,4.91.95,6.12,2.77.11.13.22.13.3,0,1.45-1.82,3.68-2.77,6.6-2.77,4.82,0,7.55,2.6,7.55,7.18v14.41c0,.13-.09.22-.22.22h-2.73c-.13,0-.22-.09-.22-.22v-13.87c0-3.16-1.88-5-5-5s-5.19,2.01-5.19,5.36v13.5c0,.13-.09.22-.22.22h-2.7c-.13,0-.22-.09-.22-.22v-13.87c0-3.12-1.93-5-5.04-5s-5.15,1.77-5.15,5.36v13.5c0,.13-.09.22-.22.22h-2.73c-.13,0-.22-.09-.22-.22Z"/>
          <path class="cls-3" d="M266.55,86.67v-2.31c0-.13.09-.22.22-.22h4.46c1.19,0,1.88-.06,2.38-1.1l.5-1.32c.61-1.38.3-2.1-.45-4.13l-7.31-19.58c-.04-.15.02-.26.17-.26h2.94c.11,0,.22.04.26.17l6.36,18.06c.06.17.24.17.3,0l6.36-18.06c.04-.13.15-.17.26-.17h2.92c.15,0,.22.11.17.26l-9.78,26.22c-.71,1.99-1.73,2.66-3.85,2.66h-5.69c-.13,0-.22-.09-.22-.22Z"/>
        </g>
        <g>
          <path d="M113.46,39.65l10.3-30.61c.04-.11.15-.17.26-.17h8.65c.11,0,.22.06.26.17l10.3,30.61c.04.15-.02.24-.17.24h-7.36c-.11,0-.22-.06-.26-.17l-1.51-4.89c-.04-.11-.15-.17-.26-.17h-10.62c-.11,0-.22.06-.26.17l-1.51,4.89c-.04.11-.15.17-.26.17h-7.38c-.15,0-.22-.09-.17-.24ZM124.97,28.66h6.75c.15,0,.22-.09.17-.24l-3.42-10.95c-.07-.22-.19-.22-.26,0l-3.42,10.95c-.04.15.02.24.17.24Z"/>
          <path d="M148.96,39.69l-5.88-30.59c-.02-.13.04-.24.19-.24h7.22c.13,0,.22.06.24.19l3.72,21.31c.04.19.19.19.24,0l4.61-21.31c.02-.13.11-.19.24-.19h6.66c.13,0,.22.06.24.19l4.56,21.18c.04.19.19.19.24,0l3.74-21.18c.02-.13.11-.19.24-.19h7.23c.15,0,.22.11.19.24l-5.88,30.59c-.02.13-.11.19-.24.19h-9.84c-.13,0-.22-.06-.24-.19l-3.46-17.87c-.04-.19-.22-.19-.26,0l-3.44,17.87c-.02.13-.11.19-.24.19h-9.84c-.13,0-.22-.06-.24-.19Z"/>
          <path d="M183.16,39.67v-6.04c0-.13.09-.22.22-.22h4.37c2.1,0,3.22-.58,3.22-3.44V9.08c0-.13.09-.22.22-.22h6.97c.13,0,.22.09.22.22v22.35c0,6.08-3.16,8.46-8.5,8.46h-6.49c-.13,0-.22-.09-.22-.22Z"/>
        </g>
      </g>
      <g>
        <path class="cls-2" d="M64.31,63.38h-29.57l14.78-26.04,14.78,26.04ZM42.49,58.87h14.08l-7.04-12.4-7.04,12.4Z"/>
        <path class="cls-1" d="M62.75,30.69c-1.44-.27-2.8-.52-3.98-.9,0,.75-.04,1.5-.07,2.26-.03.79-.06,1.58-.06,2.39,1.1.28,2.22.49,3.29.69.41.08.82.15,1.23.23-.03-1.01.01-2.05.05-3.13.02-.47.04-.95.05-1.43-.17-.03-.34-.06-.51-.09Z"/>
        <path class="cls-3" d="M80.14,69.8c-.06-.09-5.66-9.55-7.48-12.7-.59-1.01-.79-2.06-.74-3.15-.19-.13-.37-.25-.56-.38-1.19-.8-2.39-1.61-3.55-2.46-.62,2.62-.68,5.44.95,8.25,1.13,1.94,3.67,6.26,5.49,9.33H24.85l24.74-41.97c.6.98,1.24,2.03,1.79,2.93,1.72,2.84,4.44,4.05,7.26,4.78,1.1.28,2.22.49,3.29.69.41.08.82.15,1.23.23,2.93.57,5.42,1.26,6.83,3.41,1.35,2.04.63,4.31-.69,7.82,1.18.94,2.47,1.84,3.79,2.73.12-.32.24-.65.37-.98,1.41-3.72,3-7.94.3-12.04-2.55-3.87-6.71-4.79-10.49-5.5-.17-.03-.34-.06-.51-.09-1.44-.27-2.8-.52-3.98-.9-1.53-.5-2.77-1.22-3.53-2.47-1.51-2.48-3.76-6.15-3.76-6.15l-1.96-3.19-32.55,55.22h65.2l-2.02-3.4Z"/>
        <path class="cls-4" d="M99.07,83.06H0L49.55,0l10.78,18.08c2.83,4.9,3.03,9.04,2.93,12.71-.17-.03-.34-.06-.51-.09-1.44-.27-2.8-.52-3.98-.9.02-2.96-.3-5.92-2.33-9.45l-6.88-11.54L7.94,78.55h83.25c-2.64-4.48-7.19-12.15-9.12-15.21-2.66-4.22-6.44-6.88-10.15-9.39-.19-.13-.37-.25-.56-.38-1.19-.8-2.39-1.61-3.55-2.46-2.63-1.93-5.08-4.13-6.83-7.09-2.03-3.44-2.36-6.58-2.34-9.59,1.1.28,2.22.49,3.29.69.41.08.82.15,1.23.23.06,2.15.42,4.2,1.71,6.38,1.11,1.89,2.66,3.43,4.43,4.85,1.18.94,2.47,1.84,3.79,2.73.26.18.52.35.78.53,4.08,2.75,8.72,5.86,12.02,11.1,2.82,4.48,10.85,18.15,11.19,18.72l1.99,3.4Z"/>
      </g>
    </g>
  </g>
</svg>