<?xml version="1.0" encoding="UTF-8"?>
<svg id="Layer_2" data-name="Layer 2" xmlns="http://www.w3.org/2000/svg" xmlns:xlink="http://www.w3.org/1999/xlink" viewBox="0 0 314.5 343.59">
  <defs>
    <style>
      .cls-1 {
        fill: #3a8bd6;
      }

      .cls-2 {
        fill: none;
      }

      .cls-3 {
        fill: #9d7dd1;
      }

      .cls-4 {
        fill: #b9a0de;
      }

      .cls-5 {
        clip-path: url(#clippath);
      }

      .cls-6 {
        fill: #8f6bca;
      }
    </style>
    <clipPath id="clippath">
      <rect class="cls-2" x="0" width="314.5" height="343.59"/>
    </clipPath>
  </defs>
  <g id="Layer_1-2" data-name="Layer 1">
    <g class="cls-5">
      <g>
        <path class="cls-4" d="M172.09,277.68H11.36l80.37-134.72,80.37,134.72ZM43.02,259.7h97.4l-48.7-81.64-48.7,81.64Z"/>
        <path class="cls-1" d="M128.97,125.04c-.21-.08-.42-.16-.63-.24.26,5.17.07,10.26-.13,15.46-.04,1.14-.08,2.27-.13,3.41,5.73,1.68,11.63,2.77,17.28,3.81.2.04.4.07.6.12.04-2.18.13-4.39.21-6.66.15-3.73.3-7.57.26-11.55-6.41-1.2-12.37-2.41-17.47-4.35Z"/>
        <path class="cls-3" d="M289.22,343.72H-105.9L91.73,12.45l42.99,72.08c9.81,17.01,11.68,31.69,11.72,44.87-6.41-1.2-12.37-2.41-17.47-4.35-.21-.08-.42-.16-.63-.24-.47-9.72-2.55-19.73-9.16-31.23l-27.45-46.02L-74.23,325.73h332.02c-10.54-17.86-28.66-48.45-36.35-60.65-9.02-14.32-21.24-24.11-33.79-32.86-2.98-2.08-5.99-4.1-8.97-6.1-2.67-1.79-5.35-3.6-8.02-5.45-12.72-8.8-25.04-18.56-33.35-32.66-9.47-16.07-9.69-30.47-9.22-44.35,5.73,1.68,11.63,2.77,17.28,3.81.2.04.4.07.6.12-.22,10.76.53,20.6,6.83,31.29,5.57,9.47,13.9,16.79,23.31,23.62,4.04,2.94,8.28,5.8,12.6,8.69.9.6,1.8,1.21,2.72,1.82,15.6,10.52,32.76,22.69,45.22,42.47,11.26,17.87,43.28,72.37,44.63,74.68l7.96,13.55Z"/>
        <path class="cls-6" d="M223.33,298.55c-.24-.42-24.47-41.31-32.37-54.91-2.16-3.71-3.15-7.5-3.32-11.41-2.98-2.08-5.99-4.1-8.97-6.1-2.67-1.79-5.35-3.6-8.02-5.45-1.99,10.28-1.59,21.06,4.76,32,5.02,8.63,16.53,28.15,24.4,41.45H-16.4L91.88,110.45c2.77,4.52,5.84,9.54,8.39,13.75,6.66,11,16.92,16.28,27.82,19.47,5.73,1.68,11.63,2.77,17.28,3.81.2.04.4.07.6.12,14.28,2.66,27.69,5.28,34.73,15.94,6.1,9.27,2.77,19.4-3.16,35.15-.47,1.26-.96,2.53-1.43,3.81,4.04,2.94,8.28,5.8,12.6,8.69.9.6,1.8,1.21,2.72,1.82.9-2.59,1.9-5.26,2.93-7.99,6.01-15.93,12.82-33.98,1.36-51.39-11.34-17.2-30.32-20.73-47.06-23.85-.75-.14-1.49-.27-2.21-.41-6.41-1.2-12.37-2.41-17.47-4.35-.21-.08-.42-.16-.63-.24-5.41-2.14-9.8-5.15-12.69-9.92-6.5-10.74-16.27-26.6-16.27-26.6l-7.82-12.71L-47.88,312.12H231.37l-8.04-13.57Z"/>
      </g>
    </g>
  </g>
</svg>