<?xml version="1.0" encoding="UTF-8"?>
<svg id="Layer_2" data-name="Layer 2" xmlns="http://www.w3.org/2000/svg" xmlns:xlink="http://www.w3.org/1999/xlink" viewBox="0 0 330.85 362.54">
  <defs>
    <style>
      .cls-1 {
        fill: #1d84d3;
      }

      .cls-2 {
        fill: #4e93d9;
      }

      .cls-3 {
        fill: none;
      }

      .cls-4 {
        clip-path: url(#clippath);
      }

      .cls-5 {
        fill: #87b0e4;
      }

      .cls-6 {
        fill: #9674ce;
      }
    </style>
    <clipPath id="clippath">
      <rect class="cls-3" x="0" width="330.85" height="362.54"/>
    </clipPath>
  </defs>
  <g id="Layer_1-2" data-name="Layer 1">
    <g class="cls-4">
      <g>
        <path class="cls-5" d="M90.87,276.38l-70.88-40.92v-81.85l70.88-40.92,70.88,40.92v81.85l-70.88,40.92ZM35.91,226.26l54.96,31.73,54.96-31.73v-63.46l-54.96-31.73-54.96,31.73v63.46Z"/>
        <path class="cls-6" d="M177.45,270.85c-.03-.49-.06-.99-.1-1.48-1.99.17-4.14.33-6.47.49-2.99.21-6.13.41-9.41.75.02.43.05.86.08,1.27.37,5.59.6,10.42.25,14.68,3.5-.35,6.9-.59,10.18-.81,1.98-.13,3.93-.27,5.86-.43.22-4.98-.1-9.89-.4-14.48Z"/>
        <path class="cls-2" d="M233.33,112.29v68.26c0,20.7-8.89,31.36-19.4,38.86-3.84,2.76-7.9,5.1-11.82,7.34-.62.35-1.24.72-1.86,1.07-7.36,4.25-14.21,8.5-18.87,15.32-5.02,7.33-4.68,16.1-4.03,26.23-1.99.17-4.14.33-6.47.49-2.99.21-6.13.41-9.41.75-.75-11.64-1.31-24.67,6.77-36.45,6.82-9.95,16.26-15.64,24.78-20.56.4-.22.78-.45,1.16-.67,4.65-2.68,8.85-5.08,12.36-7.87,6.67-5.34,10.86-12.02,10.86-24.51v-59.07L90.87,48.42-35.67,121.48v146.1l126.56,73.07c11.47-6.55,44.64-25.53,57.49-33.27,9.54-5.73,12.71-12.12,13.43-20.82,3.5-.35,6.9-.59,10.18-.81,1.98-.13,3.93-.27,5.86-.43-.57,12.57-4.62,25.7-21.25,35.71-15.75,9.48-61.33,35.47-61.79,35.72l-3.97,2.26-142.44-82.23V112.29L90.87,30.03l142.46,82.26Z"/>
        <path class="cls-1" d="M213.93,219.4c-3.84,2.76-7.9,5.1-11.82,7.34-.62.35-1.24.72-1.86,1.07,4.95,10.69,6.72,19,1.8,28.28-5.32,10.02-11.91,12.12-24.7,13.27-1.99.17-4.14.33-6.47.49-2.99.21-6.13.41-9.41.75-12.55,1.19-27.22,3.89-43.51,13.08-7.02,3.95-20.61,11.87-27.34,15.8L-.25,247.02v-104.97l90.89-52.48,90.91,52.48v33.25c0,14.7,5.73,27.19,11.48,38.29.4-.22.78-.45,1.16-.67,4.65-2.68,8.85-5.08,12.36-7.87-4.81-9.38-9.08-19.13-9.08-29.75v-42.44l-106.83-61.68-106.81,61.68v123.35l106.85,61.7,4-2.34c.21-.13,21.71-12.71,31.12-18.03,13.19-7.42,25.15-9.83,36.02-10.97,3.5-.35,6.9-.59,10.18-.81,1.98-.13,3.93-.27,5.86-.43,15.05-1.26,28.92-4.14,38.27-21.75,8.62-16.24,4.17-30.9-2.18-44.16Z"/>
      </g>
    </g>
  </g>
</svg>