<?xml version="1.0" encoding="UTF-8"?>
<svg id="Layer_2" data-name="Layer 2" xmlns="http://www.w3.org/2000/svg" xmlns:xlink="http://www.w3.org/1999/xlink" viewBox="0 0 343.57 365.71">
  <defs>
    <style>
      .cls-1 {
        fill: #00bab4;
      }

      .cls-2 {
        fill: none;
      }

      .cls-3 {
        fill: #5fd2cc;
      }

      .cls-4 {
        fill: #00b5af;
      }

      .cls-5 {
        fill: #00bfb9;
      }

      .cls-6 {
        clip-path: url(#clippath);
      }
    </style>
    <clipPath id="clippath">
      <rect class="cls-2" x="0" width="343.57" height="365.71"/>
    </clipPath>
  </defs>
  <g id="Layer_1-2" data-name="Layer 1">
    <g class="cls-6">
      <g>
        <path class="cls-3" d="M91.19,234.17c-43.33,0-78.57-35.25-78.57-78.57s35.25-78.57,78.57-78.57,78.57,35.25,78.57,78.57-35.25,78.57-78.57,78.57ZM91.19,92.07c-35.03,0-63.53,28.5-63.53,63.53s28.5,63.53,63.53,63.53,63.53-28.5,63.53-63.53-28.5-63.53-63.53-63.53Z"/>
        <path class="cls-1" d="M207.89,176.88c-2.96,3.74-6.36,7.41-10.1,11.2,4.12,4.28,7.36,8.04,9.03,12.26,3.84-3.83,7.48-7.65,10.8-11.6-2.78-4.45-6.29-8.31-9.72-11.86Z"/>
        <path class="cls-5" d="M218.28,226.09c-10.61,22.73-28.38,41.43-50.5,54.46-22.12,13.02-48.59,20.36-76.59,20.36-80.13,0-145.32-65.19-145.32-145.32S11.06,10.27,91.2,10.27c37.61,0,74.06,15.07,102.64,42.46,15.52,14.85,17.84,29.51,15.23,42.76-1.04,5.32-2.87,10.41-4.97,15.21-1.75,3.99-3.67,7.78-5.47,11.31-4.4,8.64-8.55,16.81-8.55,23.71,0,12.96,7.31,20.43,15.76,29.06.68.69,1.36,1.39,2.05,2.11-2.96,3.74-6.36,7.41-10.1,11.2-.86-.9-1.76-1.82-2.7-2.78-8.94-9.13-20.06-20.5-20.06-39.59,0-10.52,5.18-20.69,10.19-30.54,2.49-4.91,4.72-9.41,6.41-13.66,2.24-5.61,3.56-10.75,3.43-15.78-.2-7.32-3.51-14.37-11.63-22.14-25.77-24.67-58.53-38.27-92.24-38.27-71.84,0-130.28,58.44-130.28,130.28s58.44,130.28,130.28,130.28c50.17,0,94.7-25.96,113.45-66.14,2.37-5.09,3.42-9.25,3.42-12.88,0-2.35-.44-4.49-1.24-6.51,3.84-3.83,7.48-7.65,10.8-11.6,5.75,9.17,8.37,20.83.66,37.35Z"/>
        <path class="cls-4" d="M209.07,95.48c-1.04,5.32-2.87,10.41-4.97,15.21,13.53,11.16,16.66,19.41,16.66,31.55,0,14.09-4.87,24.59-12.86,34.64-2.96,3.74-6.36,7.41-10.1,11.2-3.37,3.42-7.03,6.91-10.89,10.61-5.57,5.32-11.32,10.83-17.26,17.07-24.44,25.64-50.84,38.66-78.45,38.66-54.49,0-98.82-44.33-98.82-98.82S35.88,58.35,91.41,56.77c.59-.02,1.19-.03,1.78-.03,20.75,0,41.04,10.18,56.52,19.16,18.11,10.5,31.73,18.7,41.93,25.61,2.24-5.61,3.56-10.75,3.43-15.78-10.14-6.61-22.59-14.03-37.81-22.85-17.64-10.22-41.12-21.85-66.27-21.15-63.74,1.82-113.66,51.83-113.66,113.86s51.09,113.86,113.87,113.86c15.95,0,31.44-3.64,46.36-10.88,14.92-7.24,29.28-18.06,42.98-32.44,5.69-5.99,11.32-11.36,16.77-16.57,3.26-3.12,6.45-6.17,9.51-9.22,3.84-3.83,7.48-7.65,10.8-11.6,10.78-12.81,18.18-26.88,18.18-46.5s-6.33-31.34-26.73-46.76Z"/>
      </g>
    </g>
  </g>
</svg>