<?xml version="1.0" encoding="UTF-8"?>
<svg id="Layer_2" data-name="Layer 2" xmlns="http://www.w3.org/2000/svg" viewBox="0 0 731.37 145.01">
  <defs>
    
  </defs>
  <g id="Layer_1-2" data-name="Layer 1">
    <g>
      <g>
        <path d="M179.29,103.7l21.03-62.51c.09-.22.31-.35.53-.35h17.67c.22,0,.44.13.53.35l21.03,62.51c.09.31-.04.49-.35.49h-15.02c-.22,0-.44-.13-.53-.35l-3.09-9.98c-.09-.22-.31-.35-.53-.35h-21.69c-.22,0-.44.13-.53.35l-3.09,9.98c-.09.22-.31.35-.53.35h-15.07c-.31,0-.44-.18-.35-.49ZM202.8,81.25h13.78c.31,0,.44-.18.35-.49l-6.98-22.35c-.13-.44-.4-.44-.53,0l-6.98,22.35c-.09.31.04.49.35.49Z"></path>
        <path d="M251.79,103.78l-12.02-62.47c-.04-.27.09-.49.4-.49h14.75c.27,0,.44.13.49.4l7.6,43.52c.09.4.4.4.49,0l9.41-43.52c.04-.27.22-.4.49-.4h13.61c.26,0,.44.13.49.4l9.32,43.25c.09.4.4.4.49,0l7.64-43.25c.04-.27.22-.4.49-.4h14.76c.31,0,.44.22.4.49l-12.02,62.47c-.04.27-.22.4-.49.4h-20.1c-.26,0-.44-.13-.49-.4l-7.07-36.49c-.09-.4-.44-.4-.53,0l-7.02,36.49c-.04.27-.22.4-.49.4h-20.1c-.26,0-.44-.13-.49-.4Z"></path>
        <path d="M321.63,103.74v-12.33c0-.27.18-.44.44-.44h8.92c4.28,0,6.58-1.19,6.58-7.02v-42.68c0-.27.18-.44.44-.44h14.22c.27,0,.44.18.44.44v45.64c0,12.41-6.45,17.27-17.36,17.27h-13.25c-.27,0-.44-.18-.44-.44Z"></path>
        <path class="cls-3" d="M378.8,103.7l22.75-62.51c.09-.27.31-.35.53-.35h7.69c.22,0,.44.09.53.35l22.75,62.51c.09.31-.04.49-.35.49h-6.14c-.22,0-.44-.09-.53-.35l-5.26-14.62c-.09-.27-.31-.35-.53-.35h-28.63c-.22,0-.44.09-.53.35l-5.26,14.62c-.09.27-.31.35-.53.35h-6.14c-.31,0-.44-.18-.35-.49ZM393.78,83.2h24.3c.31,0,.44-.18.35-.49l-12.19-34.06c-.13-.35-.49-.35-.62,0l-12.19,34.06c-.09.31.04.49.35.49Z"></path>
        <path class="cls-3" d="M436.45,82.31c0-13.65,8.39-22.66,20.98-22.66,10.03,0,17.85,5.92,19.31,15.99.04.31-.18.49-.44.49h-5.17c-.27,0-.4-.13-.49-.4-1.28-6.54-6.32-10.6-13.12-10.6-9.06,0-14.71,6.63-14.71,17.19s5.65,17.32,14.67,17.32c6.76,0,11.79-4.02,13.12-10.47.09-.27.22-.4.49-.4h5.12c.27,0,.44.18.4.49-1.55,9.98-9.46,15.82-19.17,15.82-12.59,0-20.98-8.97-20.98-22.75Z"></path>
        <path class="cls-3" d="M482.31,91.99c0-7.91,6.05-13.03,16.08-13.03h16.26c.27,0,.44-.18.44-.44v-3.18c0-6.76-4.15-10.38-12.02-10.38-6.94,0-11.18,2.96-12.41,8.84-.04.27-.22.4-.49.4h-5.61c-.31,0-.44-.18-.4-.49,1.55-8.75,8-14.05,18.91-14.05s18.29,5.7,18.29,16.04v20.98c0,1.46.75,2.21,2.21,2.21h2.21c.27,0,.44.18.44.44v4.42c0,.27-.18.44-.44.44h-4.46c-3.67,0-5.74-1.59-6.01-5.04-.04-.4-.18-.49-.31-.27-3,4.15-8,6.18-14.98,6.18-10.91,0-17.72-4.9-17.72-13.08ZM515.18,85.76v-.97c0-.27-.18-.44-.44-.44h-15.86c-6.36,0-10.12,2.83-10.12,7.55s4.24,7.91,11.8,7.91c9.54,0,14.62-4.95,14.62-14.05Z"></path>
        <path class="cls-3" d="M528.7,82.4c0-14.05,8.26-22.75,20.37-22.75,6.01,0,11.44,2.43,14.62,6.67.27.35.53.22.53-.18v-24.87c0-.27.18-.44.44-.44h5.52c.27,0,.44.18.44.44v62.47c0,.27-.18.44-.44.44h-4.95c-.26,0-.4-.09-.44-.4l-.8-5.61c-.04-.4-.31-.49-.53-.18-3.09,4.46-8.48,7.07-14.53,7.07-11.88,0-20.23-8.57-20.23-22.66ZM564.48,82.4c0-10.47-5.74-17.19-14.76-17.19s-14.67,6.72-14.67,17.19,5.74,17.14,14.62,17.14,14.8-6.76,14.8-17.14Z"></path>
        <path class="cls-3" d="M577.74,82.36c0-13.56,8.66-22.71,21.12-22.71s19.97,8.53,20.01,22.53l-.09,1.72c0,.31-.18.44-.44.44h-33.93c-.26,0-.44.18-.4.49.8,9.32,6.27,14.98,14.53,14.98,5.92,0,10.65-2.61,12.94-9.23.09-.22.31-.35.53-.35h5.43c.31,0,.49.22.4.57-2.83,10.12-10.12,14.27-19.35,14.27-12.72,0-20.76-9.1-20.76-22.71ZM584.58,78.96h27.57c.27,0,.44-.18.4-.49-.84-8.35-6.01-13.52-13.61-13.52-8.13,0-13.52,5.26-14.76,13.52-.09.31.13.49.4.49Z"></path>
        <path class="cls-3" d="M625.89,103.74v-42.72c0-.27.18-.44.44-.44h5.04c.26,0,.44.13.49.4l.53,3.18c.04.35.31.49.57.18,2.65-2.87,6.63-4.68,11.84-4.68,5.57,0,10.03,1.94,12.5,5.65.22.27.44.27.62,0,2.96-3.71,7.51-5.65,13.47-5.65,9.85,0,15.42,5.3,15.42,14.67v29.42c0,.27-.18.44-.44.44h-5.57c-.27,0-.44-.18-.44-.44v-28.32c0-6.45-3.84-10.21-10.21-10.21s-10.6,4.11-10.6,10.96v27.57c0,.27-.18.44-.44.44h-5.52c-.27,0-.44-.18-.44-.44v-28.32c0-6.36-3.93-10.21-10.29-10.21s-10.52,3.62-10.52,10.96v27.57c0,.27-.18.44-.44.44h-5.57c-.26,0-.44-.18-.44-.44Z"></path>
        <path class="cls-3" d="M691.45,119.64v-4.73c0-.27.18-.44.44-.44h9.1c2.43,0,3.84-.13,4.86-2.25l1.02-2.69c1.24-2.83.62-4.29-.93-8.44l-14.93-39.98c-.09-.31.04-.53.35-.53h6.01c.22,0,.44.09.53.35l12.99,36.89c.13.35.49.35.62,0l12.99-36.89c.09-.27.31-.35.53-.35h5.96c.31,0,.44.22.35.53l-19.97,53.54c-1.46,4.06-3.53,5.43-7.86,5.43h-11.62c-.27,0-.44-.18-.44-.44Z"></path>
      </g>
      <g>
        <path class="cls-2" d="M112.28,110.65h-51.62l25.81-45.46,25.81,45.46ZM74.18,102.78h24.58l-12.29-21.64-12.29,21.64Z"></path>
        <path class="cls-1" d="M109.55,53.58c-2.52-.46-4.89-.91-6.95-1.57-.02,1.31-.07,2.62-.12,3.94-.05,1.38-.1,2.76-.11,4.16,1.92.5,3.87.86,5.75,1.2.72.13,1.44.27,2.14.4-.05-1.77.02-3.58.09-5.47.03-.82.06-1.65.09-2.5-.3-.06-.6-.11-.89-.17Z"></path>
        <path class="cls-3" d="M139.92,121.86c-.1-.17-9.88-16.67-13.07-22.17-1.02-1.76-1.38-3.59-1.29-5.49-.33-.22-.65-.44-.98-.66-2.07-1.39-4.16-2.8-6.19-4.3-1.08,4.57-1.19,9.5,1.66,14.41,1.97,3.39,6.42,10.93,9.59,16.29H43.38l43.2-73.28c1.05,1.71,2.17,3.55,3.12,5.12,3.01,4.96,7.75,7.08,12.67,8.34,1.92.5,3.87.86,5.75,1.2.72.13,1.44.27,2.14.4,5.12,1,9.45,2.2,11.93,5.95,2.35,3.57,1.09,7.53-1.2,13.65,2.06,1.65,4.31,3.2,6.61,4.76.21-.57.43-1.13.65-1.72,2.46-6.5,5.23-13.87.52-21.03-4.46-6.75-11.72-8.36-18.32-9.6-.3-.06-.6-.11-.89-.17-2.52-.46-4.89-.91-6.95-1.57-2.68-.87-4.84-2.13-6.16-4.31-2.63-4.34-6.57-10.74-6.57-10.74l-3.42-5.57L29.61,127.8h113.83l-3.52-5.94Z"></path>
        <path class="cls-4" d="M172.96,145.01H0L86.51,0l18.82,31.56c4.94,8.56,5.28,15.77,5.11,22.19-.3-.06-.6-.11-.89-.17-2.52-.46-4.89-.91-6.95-1.57.04-5.16-.53-10.34-4.07-16.5l-12.02-20.14L13.86,137.14h145.34c-4.61-7.82-12.55-21.21-15.92-26.55-4.65-7.38-11.25-12.01-17.73-16.39-.33-.22-.65-.44-.98-.66-2.07-1.39-4.16-2.8-6.19-4.3-4.59-3.38-8.87-7.21-11.92-12.38-3.54-6.01-4.12-11.48-4.09-16.74,1.92.5,3.87.86,5.75,1.2.72.13,1.44.27,2.14.4.1,3.75.73,7.33,2.98,11.14,1.94,3.3,4.64,5.99,7.74,8.46,2.06,1.65,4.31,3.2,6.61,4.76.46.31.91.61,1.37.92,7.13,4.79,15.22,10.23,20.99,19.39,4.93,7.82,18.94,31.68,19.54,32.69l3.48,5.93Z"></path>
      </g>
    </g>
  </g>
</svg>