<?xml version="1.0" encoding="UTF-8"?>
<svg id="Layer_2" data-name="Layer 2" xmlns="http://www.w3.org/2000/svg" viewBox="0 0 742.91 132.67">
  <defs>
    <style>
      .cls-1 { fill: #ff6b00; }
      .cls-2 { fill: #ff6b00; }
      .cls-3 { fill: #ff6b00; }
    </style>
  </defs>
  <g id="Layer_1-2" data-name="Layer 1">
    <g>
      <g>
        <path d="M164.53,99.48l21.03-62.51c.09-.22.31-.35.53-.35h17.67c.22,0,.44.13.53.35l21.03,62.51c.09.31-.04.49-.35.49h-15.02c-.22,0-.44-.13-.53-.35l-3.09-9.98c-.09-.22-.31-.35-.53-.35h-21.69c-.22,0-.44.13-.53.35l-3.09,9.98c-.09.22-.31.35-.53.35h-15.07c-.31,0-.44-.18-.35-.49ZM188.03,77.04h13.78c.31,0,.44-.18.35-.49l-6.98-22.35c-.13-.44-.4-.44-.53,0l-6.98,22.35c-.09.31.04.49.35.49Z"></path>
        <path d="M237.02,99.57l-12.02-62.47c-.04-.27.09-.49.4-.49h14.75c.27,0,.44.13.49.4l7.6,43.52c.09.4.4.4.49,0l9.41-43.52c.04-.27.22-.4.49-.4h13.61c.26,0,.44.13.49.4l9.32,43.25c.09.4.4.4.49,0l7.64-43.25c.04-.27.22-.4.49-.4h14.76c.31,0,.44.22.4.49l-12.02,62.47c-.04.27-.22.4-.49.4h-20.1c-.26,0-.44-.13-.49-.4l-7.07-36.49c-.09-.4-.44-.4-.53,0l-7.02,36.49c-.04.27-.22.4-.49.4h-20.1c-.26,0-.44-.13-.49-.4Z"></path>
        <path d="M306.87,99.53v-12.33c0-.27.18-.44.44-.44h8.92c4.28,0,6.58-1.19,6.58-7.02v-42.68c0-.27.18-.44.44-.44h14.22c.27,0,.44.18.44.44v45.64c0,12.41-6.45,17.27-17.36,17.27h-13.25c-.27,0-.44-.18-.44-.44Z"></path>
        <path class="cls-2" d="M371.99,99.53v-62.47c0-.27.18-.44.44-.44h5.83c.27,0,.44.18.44.44v62.47c0,.27-.18.44-.44.44h-5.83c-.27,0-.44-.18-.44-.44Z"></path>
        <path class="cls-2" d="M390.94,99.53v-42.72c0-.27.18-.44.44-.44h5.04c.26,0,.4.09.44.4l.53,3.89c.04.35.31.44.57.13,3.09-3.49,7.55-5.35,12.81-5.35,10.91,0,17.41,5.88,17.41,16.39v27.7c0,.27-.18.44-.44.44h-5.57c-.27,0-.44-.18-.44-.44v-26.73c0-7.55-4.42-11.8-12.1-11.8s-12.24,4.99-12.24,12.9v25.62c0,.27-.18.44-.44.44h-5.57c-.26,0-.44-.18-.44-.44Z"></path>
        <path class="cls-2" d="M437.55,99.53v-42.72c0-.27.18-.44.44-.44h5.04c.27,0,.4.09.44.4l.53,3.89c.04.35.31.44.57.13,3.09-3.49,7.56-5.35,12.81-5.35,10.91,0,17.41,5.88,17.41,16.39v27.7c0,.27-.18.44-.44.44h-5.57c-.27,0-.44-.18-.44-.44v-26.73c0-7.55-4.42-11.8-12.1-11.8s-12.24,4.99-12.24,12.9v25.62c0,.27-.18.44-.44.44h-5.57c-.27,0-.44-.18-.44-.44Z"></path>
        <path class="cls-2" d="M481.81,78.1c0-13.74,8.26-22.66,20.99-22.66s20.98,8.92,20.98,22.66-8.22,22.75-20.98,22.75-20.99-8.88-20.99-22.75ZM517.42,78.1c0-10.38-5.74-17.1-14.62-17.1s-14.62,6.72-14.62,17.1,5.74,17.23,14.62,17.23,14.62-6.76,14.62-17.23Z"></path>
        <path class="cls-2" d="M540.57,99.61l-15.86-42.72c-.09-.31.04-.53.35-.53h6.01c.22,0,.44.09.53.35l12.99,36.76c.13.35.44.35.57,0l13.03-36.76c.09-.27.31-.35.53-.35h5.96c.31,0,.44.22.35.53l-15.86,42.72c-.09.27-.27.35-.49.35h-7.64c-.22,0-.4-.09-.49-.35Z"></path>
        <path class="cls-2" d="M566.24,87.77c0-7.91,6.05-13.03,16.08-13.03h16.26c.27,0,.44-.18.44-.44v-3.18c0-6.76-4.15-10.38-12.02-10.38-6.94,0-11.18,2.96-12.41,8.84-.04.27-.22.4-.49.4h-5.61c-.31,0-.44-.18-.4-.49,1.55-8.75,8-14.05,18.91-14.05s18.29,5.7,18.29,16.04v20.98c0,1.46.75,2.21,2.21,2.21h2.21c.27,0,.44.18.44.44v4.42c0,.27-.18.44-.44.44h-4.46c-3.67,0-5.74-1.59-6.01-5.04-.04-.4-.18-.49-.31-.27-3,4.15-8,6.18-14.98,6.18-10.91,0-17.72-4.9-17.72-13.08ZM599.11,81.55v-.97c0-.27-.18-.44-.44-.44h-15.86c-6.36,0-10.12,2.83-10.12,7.55s4.24,7.91,11.8,7.91c9.54,0,14.62-4.95,14.62-14.05Z"></path>
        <path class="cls-2" d="M620.18,92.63v-30.62c0-.27-.18-.44-.44-.44h-8.26c-.27,0-.44-.18-.44-.44v-4.33c0-.27.18-.44.44-.44h5.08c2.47,0,3.89-1.41,3.89-3.89v-9.32c0-.27.18-.44.44-.44h5.3c.26,0,.44.18.44.44v12.77c0,.27.18.44.44.44h8.22c.27,0,.44.18.44.44v4.33c0,.27-.18.44-.44.44h-8.22c-.27,0-.44.18-.44.44v29.11c0,2.34.84,3.18,3.18,3.18h5.48c.27,0,.44.18.44.44v4.77c0,.27-.18.44-.44.44h-7.78c-4.77,0-7.33-2.39-7.33-7.33Z"></path>
        <path class="cls-2" d="M642.45,45.14v-8.08c0-.27.18-.44.44-.44h6.8c.26,0,.44.18.44.44v8.08c0,.27-.18.44-.44.44h-6.8c-.26,0-.44-.18-.44-.44ZM643.06,99.53v-42.72c0-.27.18-.44.44-.44h5.57c.27,0,.44.18.44.44v42.72c0,.27-.18.44-.44.44h-5.57c-.27,0-.44-.18-.44-.44Z"></path>
        <path class="cls-2" d="M656.67,78.1c0-13.74,8.26-22.66,20.98-22.66s20.99,8.92,20.99,22.66-8.22,22.75-20.99,22.75-20.98-8.88-20.98-22.75ZM692.28,78.1c0-10.38-5.74-17.1-14.62-17.1s-14.62,6.72-14.62,17.1,5.74,17.23,14.62,17.23,14.62-6.76,14.62-17.23Z"></path>
        <path class="cls-2" d="M705.67,99.53v-42.72c0-.27.18-.44.44-.44h5.04c.26,0,.4.09.44.4l.53,3.89c.04.35.31.44.57.13,3.09-3.49,7.55-5.35,12.81-5.35,10.91,0,17.41,5.88,17.41,16.39v27.7c0,.27-.18.44-.44.44h-5.57c-.27,0-.44-.18-.44-.44v-26.73c0-7.55-4.42-11.8-12.1-11.8s-12.24,4.99-12.24,12.9v25.62c0,.27-.18.44-.44.44h-5.57c-.26,0-.44-.18-.44-.44Z"></path>
      </g>
      <g>
        <path class="cls-3" d="M98.23,98.23h-63.8v-63.8h63.8v63.8ZM42.31,90.36h48.05v-48.05h-48.05v48.05Z"></path>
        <path class="cls-1" d="M88.42,9.43c-1.31.42-2.62.84-3.96,1.28-1.59.52-3.22,1.05-4.89,1.58,2.55,1.73,4.53,3.87,6.38,6.22.32-.11.64-.21.95-.31,2.55-.83,4.88-1.59,7.01-2.21-1.64-2.22-3.39-4.47-5.5-6.56Z"></path>
        <path class="cls-2" d="M122.3,36.46c2.43-9.32,3.29-17.51-3.64-24.45-8.48-8.48-18.62-6.27-30.24-2.58-1.31.42-2.62.84-3.96,1.28-1.59.52-3.22,1.05-4.89,1.58-8.07,2.54-17.04,4.92-27.2,4.92H17.21v98.25h98.25v-42.97c0-10.98,2.32-20,4.6-27.99-1.85-1.58-4.22-2.68-7.08-3.88-2.44,8.49-5.39,19.01-5.39,31.87v35.1H25.08V25.09h27.29c13.05,0,24.38-3.57,33.58-6.57.32-.11.64-.21.95-.31,2.55-.83,4.88-1.59,7.01-2.21,8.97-2.62,14.55-3.04,19.18,1.59,3.75,3.75,3.75,8.12,1.98,15.38,2.46,1.03,4.94,2.09,7.23,3.5Z"></path>
        <path class="cls-1" d="M132.67,59.39v73.28H0V0h62.04c13.59,0,21.1,4.2,26.38,9.43-1.31.42-2.62.84-3.96,1.28-1.59.52-3.22,1.05-4.89,1.58-3.95-2.71-9.25-4.42-17.53-4.42H7.87v116.93h116.93V59.39c0-8.22-1.64-12.24-4.75-14.89-1.85-1.58-4.22-2.68-7.08-3.88-.42-.17-.84-.35-1.28-.54-4.94-2.06-11.1-4.63-16.77-10.3-2.45-2.45-4.41-5.12-6.31-7.71-.89-1.22-1.76-2.41-2.66-3.55.32-.11.64-.21.95-.31,2.55-.83,4.88-1.59,7.01-2.21.35.48.7.95,1.05,1.42,1.8,2.46,3.49,4.78,5.52,6.8,4.58,4.58,9.49,6.63,14.24,8.6.12.05.23.09.35.14,2.46,1.03,4.94,2.09,7.23,3.5,5.8,3.57,10.37,9.42,10.37,22.93Z"></path>
      </g>
    </g>
  </g>
</svg>