<?xml version="1.0" encoding="UTF-8"?>
<svg id="Layer_2" data-name="Layer 2" xmlns="http://www.w3.org/2000/svg" viewBox="0 0 875.64 242.35">
  <defs>
    <style>
      .cls-1 {
        fill: #0f1822;
      }
    </style>
  </defs>
  <g id="Layer_1-2" data-name="Layer 1">
    <g>
      <path class="cls-1" d="M438.78,239.81l52.98-157.49c.22-.56.78-.89,1.34-.89h44.52c.56,0,1.11.33,1.34.89l52.98,157.49c.22.78-.11,1.22-.89,1.22h-37.84c-.56,0-1.11-.33-1.34-.89l-7.79-25.15c-.22-.56-.78-.89-1.34-.89h-54.65c-.56,0-1.11.33-1.34.89l-7.79,25.15c-.22.56-.78.89-1.34.89h-37.95c-.78,0-1.11-.45-.89-1.22ZM497.99,183.27h34.73c.78,0,1.11-.45.89-1.22l-17.59-56.32c-.33-1.11-1-1.11-1.34,0l-17.59,56.32c-.22.78.11,1.22.89,1.22Z"/>
      <path class="cls-1" d="M621.42,240.03l-30.27-157.38c-.11-.67.22-1.22,1-1.22h37.17c.67,0,1.11.33,1.22,1l19.14,109.63c.22,1,1,1,1.22,0l23.71-109.63c.11-.67.56-1,1.22-1h34.28c.67,0,1.11.33,1.22,1l23.48,108.96c.22,1,1,1,1.22,0l19.25-108.96c.11-.67.56-1,1.22-1h37.17c.78,0,1.11.56,1,1.22l-30.27,157.38c-.11.67-.56,1-1.22,1h-50.64c-.67,0-1.11-.33-1.22-1l-17.81-91.93c-.22-1-1.11-1-1.34,0l-17.7,91.93c-.11.67-.56,1-1.22,1h-50.64c-.67,0-1.11-.33-1.22-1Z"/>
      <path class="cls-1" d="M797.39,239.92v-31.05c0-.67.45-1.11,1.11-1.11h22.48c10.8,0,16.58-3.01,16.58-17.7v-107.52c0-.67.45-1.11,1.11-1.11h35.84c.67,0,1.11.45,1.11,1.11v114.97c0,31.28-16.25,43.52-43.74,43.52h-33.39c-.67,0-1.11-.45-1.11-1.11Z"/>
    </g>
    <g>
      <polygon class="cls-1" points="261.79 242.35 207.51 167.74 153.69 242.33 0 242.1 .03 221.1 142.95 221.31 203.77 137.02 211.11 137.02 287.79 242.35 261.79 242.35"/>
      <polygon class="cls-1" points="311.05 242.35 207.51 100.11 133.23 203.06 71.85 162.48 .01 162.48 .01 141.47 78.17 141.47 127.99 174.41 203.77 69.38 211.11 69.38 337.03 242.35 311.05 242.35"/>
      <polygon class="cls-1" points="361.49 242.35 207.57 30.92 86.05 202.05 .01 202.05 .01 181.04 75.21 181.04 203.76 0 211.04 0 387.47 242.35 361.49 242.35"/>
    </g>
  </g>
</svg>