<?xml version="1.0" encoding="UTF-8"?>
<svg xmlns="http://www.w3.org/2000/svg" viewBox="0 0 731.37 145.01">
  <defs>
    <style>
      .awj-text { font-family: 'Proxima Nova Arabic', sans-serif; font-size: 48px; font-weight: 800; fill: #ffffff; text-anchor: end; letter-spacing: -0.02em; }
      .pillar-name { font-family: 'Proxima Nova Arabic', sans-serif; font-size: 36px; font-weight: 600; fill: #0069c8; text-anchor: end; letter-spacing: -0.01em; }
      .c1 { fill: #3a8bd6; } .c2 { fill: #87b0e4; } .c3 { fill: #0069c8; }
    </style>
  </defs>
  <g transform="translate(650, 0)">
    <path class="c3" d="M127.3,112.8l21.6-47.3c.1-.3.3-.5.6-.5h7.3c.2,0,.4.1.5.3l21.6,47.3c.1.3-.1.5-.3.5h-5.9c-.2,0-.4-.1-.5-.3l-5,10.9c-.1.2-.3.3-.5.3h-27.2c-.2,0-.4-.1-.5-.3l-5-10.9c-.1-.2-.3-.3-.5-.3h-5.9c-.2,0-.4.2-.3.5ZM154.5,90.7h-18.3c-.3,0-.4-.2-.3-.5l9.2-20.4c-.1-.3-.4-.3-.6,0l-9.2,20.4c-.1.3.1.5.3.5h18.3Z"/><path class="c3" d="M185.3,82.8c0-9.3,5.6-15.4,14.1-15.4,6.8,0,12,3.9,13.1,10.6.1.3-.1.5-.4.5h-3.5c-.2,0-.4-.2-.5-.3-.8-4.4-4.3-7.1-8.8-7.1-6.1,0-10,4.4-10,11.6s3.8,11.7,10,11.7c4.5,0,7.9-2.6,8.8-7.1.1-.3.2-.3.5-.3h3.5c.2,0,.5.2.4.5-1.1,6.7-6.3,10.6-13,10.6-8.5,0-14.1-6.1-14.1-15.3Z"/><path class="c3" d="M220.6,112.8v-28.9c0-.3.2-.5.5-.5h3.4c.3,0,.5.1.6.3l.5,2.1c.1.3.3.4.5.1,2-1.9,4.5-3.1,8-3.1,3.8,0,6.8,1.3,8.4,3.8.2.2.4.2.5,0,2-2.5,5-3.8,9.1-3.8,6.7,0,10.4,3.5,10.4,9.9v19.9c0,.3-.2.5-.5.5h-3.8c-.2,0-.5-.2-.5-.5v-19.2c0-4.3-2.6-6.8-7-6.8s-7.1,2.8-7.1,7.4v18.6c0,.3-.2.5-.5.5h-3.8c-.3,0-.5-.2-.5-.5v-19.2c0-4.3-2.6-6.8-6.9-6.8s-7.1,2.4-7.1,7.4v18.6c0,.3-.2.5-.5.5h-3.8c-.2,0-.5-.2-.5-.5Z"/><path class="c1" d="M116.4,121.9c-.1-.2-6.7-11.3-8.8-15-.7-1.2-.9-2.4-.9-3.7-.2-.1-.4-.3-.7-.4-1.4-.9-2.8-1.9-4.2-2.9-.7,3.1-.8,6.4,1.1,9.8,1.3,2.3,4.3,7.4,6.5,11h-37l29.3-49.7c.7,1.2,1.5,2.4,2.1,3.5,2,3.4,5.3,4.8,8.6,5.7,1.3.3,2.6.6,3.9.8.5.1,1,.2,1.5.3,3.5.7,6.4,1.5,8.1,4,.6.8,1.2,2,1.6,3.4,2.4,6.1,5,14.1,5.3,14.9h-14.4Z"/><path class="c2" d="M172.2,145.1H0L58.7,0l12.8,21.4c3.3,5.8,3.6,10.7,3.5,15.1-.2,0-.4-.1-.6-.1-1.7-.3-3.3-.6-4.7-1.1.02-3.5-.4-7-2.8-11.2l-8.2-13.7L9.4,137.2h98.6c-3.1-5.3-8.5-14.4-10.8-18-3.2-5-7.6-8.1-12-11.1-.2-.1-.4-.3-.7-.4-1.4-.9-2.8-1.9-4.2-2.9-3.1-2.3-6-4.9-8.1-8.4-2.4-4.1-2.8-7.8-2.8-11.4,1.3.3,2.6.6,3.9.8.5.1,1,.2,1.5.3.1,2.5.5,5,2,7.6,1.3,2.2,3.1,4.1,5.2,5.7,1.4,1.1,2.9,2.2,4.5,3.2.3.2.6.4.9.6,4.8,3.3,10.3,6.9,14.2,13.1,3.3,5.3,12.8,21.5,13.3,22.2l2.4,4Z"/>
  </g>
  <text class="awj-text" x="80" y="65">أوج</text>
  <text class="pillar-name" x="80" y="100">الأنظمة</text>
</svg>
