<?XML version="1.0" encoding="UTF-8"?>
<svg xmlns="http://www.w3.org/2000/svg" viewBox="0 0 200 400">
  <defs>
    <style>
      .awj-text { font-family: 'Proxima Nova Arabic', sans-serif; font-size: 40px; font-weight: 800; fill: #0f1822; text-anchor: middle; }
      .pillar-name { font-family: 'Proxima Nova Arabic', sans-serif; font-size: 32px; font-weight: 300; fill: #0069c8; text-anchor: middle; }
      .c1 { fill: #3a8bd6; } .c2 { fill: #87b0e4; } .c3 { fill: #0069c8; }
    </style>
  </defs>
  <g transform="translate(100, 30) scale(0.3)">
    <path class="c1" d="M116.4,121.9c-.1-.2-6.7-11.3-8.8-15-.7-1.2-.9-2.4-.9-3.7-.2-.1-.4-.3-.7-.4-1.4-.9-2.8-1.9-4.2-2.9-.7,3.1-.8,6.4,1.1,9.8,1.3,2.3,4.3,7.4,6.5,11h-37l29.3-49.7c.7,1.2,1.5,2.4,2.1,3.5,2,3.4,5.3,4.8,8.6,5.7,1.3.3,2.6.6,3.9.8.5.1,1,.2,1.5.3,3.5.7,6.4,1.5,8.1,4,.6.8,1.2,2,1.6,3.4,2.4,6.1,5,14.1,5.3,14.9h-14.4Z"/>
    <path class="c2" d="M172.2,145.1H0L58.7,0l12.8,21.4c3.3,5.8,3.6,10.7,3.5,15.1-.2,0-.4-.1-.6-.1-1.7-.3-3.3-.6-4.7-1.1.02-3.5-.4-7-2.8-11.2l-8.2-13.7L9.4,137.2h98.6c-3.1-5.3-8.5-14.4-10.8-18-3.2-5-7.6-8.1-12-11.1-.2-.1-.4-.3-.7-.4-1.4-.9-2.8-1.9-4.2-2.9-3.1-2.3-6-4.9-8.1-8.4-2.4-4.1-2.8-7.8-2.8-11.4,1.3.3,2.6.6,3.9.8.5.1,1,.2,1.5.3.1,2.5.5,5,2,7.6,1.3,2.2,3.1,4.1,5.2,5.7,1.4,1.1,2.9,2.2,4.5,3.2.3.2.6.4.9.6,4.8,3.3,10.3,6.9,14.2,13.1,3.3,5.3,12.8,21.5,13.3,22.2l2.4,4Z"/>
  </g>
  <text class="awj-text" x="100" y="270">أوج</text>
  <text class="pillar-name" x="100" y="320">الأنظمة</text>
</svg>
