<?xml version="1.0" encoding="UTF-8"?>
<svg xmlns="http://www.w3.org/2000/svg" viewBox="0 0 900 242.35">
  <defs>
    <style>
      .cls-1 { fill: #0f1822; }
      .awj-text {
        font-family: 'Proxima Nova Arabic', sans-serif;
        font-size: 140px;
        font-weight: 800;
        fill: #0f1822;
        text-anchor: start;
        letter-spacing: -0.04em;
      }
    </style>
  </defs>
  <!-- Icon (left side in RTL) -->
  <g transform="translate(50, 0)">
    <polygon class="cls-1" points="261.79 242.35 207.51 167.74 153.69 242.33 0 242.1 .03 221.1 142.95 221.31 203.77 137.02 211.11 137.02 287.79 242.35 261.79 242.35"/>
    <polygon class="cls-1" points="311.05 242.35 207.51 100.11 133.23 203.06 71.85 162.48 .01 162.48 .01 141.47 78.17 141.47 127.99 174.41 203.77 69.38 211.11 69.38 337.03 242.35 311.05 242.35"/>
    <polygon class="cls-1" points="361.49 242.35 207.57 30.92 86.05 202.05 .01 202.05 .01 181.04 75.21 181.04 203.76 0 211.04 0 387.47 242.35 361.49 242.35"/>
  </g>
  <!-- Arabic text "أوج" (right side) -->
  <text class="awj-text" x="420" y="180">أوج</text>
</svg>
