<?xml version="1.0" encoding="UTF-8"?>
<svg id="Layer_2" data-name="Layer 2" xmlns="http://www.w3.org/2000/svg" xmlns:xlink="http://www.w3.org/1999/xlink" viewBox="0 0 330.95 330.95">
  <defs>
    <style>
      .cls-1 {
        fill: #3a8bd6;
      }

      .cls-2 {
        fill: none;
      }

      .cls-3 {
        fill: #9d7dd1;
      }

      .cls-4 {
        fill: #b9a0de;
      }

      .cls-5 {
        clip-path: url(#clippath);
      }

      .cls-6 {
        fill: #8f6bca;
      }
    </style>
    <clipPath id="clippath">
      <rect class="cls-2" width="330.95" height="330.95"/>
    </clipPath>
  </defs>
  <g id="Layer_1-2" data-name="Layer 1">
    <g class="cls-5">
      <g>
        <path class="cls-4" d="M152.71,272.47H10.08l71.32-119.55,71.32,119.55ZM38.18,256.51h86.43l-43.22-72.44-43.22,72.44Z"/>
        <path class="cls-1" d="M114.44,137.02c-.19-.07-.37-.14-.56-.22.23,4.59.07,9.11-.11,13.72-.04,1.01-.07,2.01-.11,3.03,5.09,1.49,10.32,2.46,15.34,3.38.18.04.36.07.53.1.04-1.94.11-3.9.19-5.91.13-3.31.26-6.71.23-10.25-5.69-1.07-10.98-2.14-15.5-3.86Z"/>
        <path class="cls-3" d="M256.65,331.07H-93.97L81.4,37.11l38.15,63.96c8.71,15.09,10.36,28.12,10.4,39.81-5.69-1.07-10.98-2.14-15.5-3.86-.19-.07-.37-.14-.56-.22-.42-8.62-2.26-17.5-8.13-27.72l-24.36-40.83-147.27,246.85H228.75c-9.35-15.85-25.43-42.99-32.26-53.82-8-12.71-18.85-21.39-29.99-29.15-2.65-1.84-5.31-3.64-7.96-5.41-2.37-1.59-4.75-3.2-7.12-4.83-11.29-7.81-22.22-16.47-29.59-28.98-8.41-14.26-8.6-27.04-8.18-39.36,5.09,1.49,10.32,2.46,15.34,3.38.18.04.36.07.53.1-.2,9.55.47,18.28,6.06,27.76,4.95,8.41,12.33,14.9,20.68,20.96,3.58,2.61,7.35,5.14,11.18,7.71.79.53,1.6,1.08,2.41,1.62,13.84,9.33,29.07,20.13,40.12,37.68,10,15.86,38.4,64.22,39.6,66.27l7.06,12.02Z"/>
        <path class="cls-6" d="M198.18,290.98c-.22-.37-21.71-36.65-28.72-48.73-1.92-3.29-2.8-6.66-2.95-10.13-2.65-1.84-5.31-3.64-7.96-5.41-2.37-1.59-4.75-3.2-7.12-4.83-1.77,9.13-1.41,18.69,4.23,28.4,4.45,7.66,14.67,24.98,21.66,36.78H-14.56L81.53,124.07c2.46,4.01,5.18,8.46,7.44,12.2,5.91,9.76,15.02,14.45,24.69,17.28,5.09,1.49,10.32,2.46,15.34,3.38.18.04.36.07.53.1,12.67,2.36,24.57,4.68,30.82,14.15,5.41,8.23,2.46,17.21-2.81,31.19-.42,1.12-.85,2.24-1.27,3.38,3.58,2.61,7.35,5.14,11.18,7.71.79.53,1.6,1.08,2.41,1.62.79-2.3,1.68-4.67,2.6-7.09,5.33-14.14,11.38-30.16,1.21-45.6-10.06-15.26-26.9-18.39-41.76-21.16-.66-.12-1.32-.24-1.96-.36-5.69-1.07-10.98-2.14-15.5-3.86-.19-.07-.37-.14-.56-.22-4.8-1.9-8.7-4.57-11.26-8.8-5.77-9.53-14.44-23.6-14.44-23.6l-6.94-11.28-123.74,209.9h247.8l-7.13-12.04Z"/>
      </g>
    </g>
  </g>
</svg>