<?xml version="1.0" encoding="UTF-8"?>
<svg id="Layer_2" data-name="Layer 2" xmlns="http://www.w3.org/2000/svg" xmlns:xlink="http://www.w3.org/1999/xlink" viewBox="0 0 343.57 365.71">
  <defs>
    <style>
      .cls-1 {
        fill: #ff9331;
      }

      .cls-2 {
        fill: none;
      }

      .cls-3 {
        fill: #ff9b41;
      }

      .cls-4 {
        fill: #ffb777;
      }

      .cls-5 {
        fill: #ff8c1e;
      }

      .cls-6 {
        clip-path: url(#clippath);
      }
    </style>
    <clipPath id="clippath">
      <rect class="cls-2" width="343.57" height="365.71"/>
    </clipPath>
  </defs>
  <g id="Layer_1-2" data-name="Layer 1">
    <g class="cls-6">
      <g>
        <path class="cls-4" d="M164.34,228.54H20.67V84.87h143.67v143.67ZM38.4,210.81h108.21v-108.21H38.4v108.21Z"/>
        <path class="cls-1" d="M202.26,81.55c-1.16,4.73-2.65,10.03-4.36,15.99-.12.41-.23.82-.36,1.25,6.42,2.72,11.77,5.18,15.93,8.73.49-1.71.98-3.41,1.46-5.08,1.28-4.44,2.53-8.78,3.63-13.02-5.15-3.17-10.74-5.56-16.3-7.87Z"/>
        <path class="cls-3" d="M241.89,141.06v165.03H-56.88V7.32H82.82c30.63,0,47.54,9.44,59.43,21.22,4.74,4.71,8.68,9.78,12.38,14.77.8,1.07,1.58,2.14,2.36,3.21,4.04,5.53,7.87,10.77,12.41,15.31,10.32,10.32,21.38,14.93,32.08,19.39.26.11.51.21.78.32-1.16,4.73-2.65,10.03-4.36,15.99-.12.41-.23.82-.36,1.25-.94-.39-1.9-.79-2.88-1.2-11.13-4.64-25-10.42-37.79-23.21-5.51-5.51-9.92-11.55-14.18-17.37-2-2.74-3.97-5.42-6-7.99-4.18-5.29-8.64-10.11-14.36-14.01-8.91-6.08-20.85-9.95-39.5-9.95H-39.16v263.32H224.16v-147.31c0-18.52-3.7-27.58-10.69-33.55.49-1.71.98-3.41,1.46-5.08,1.28-4.44,2.53-8.78,3.63-13.02,13.05,8.05,23.33,21.23,23.33,51.64Z"/>
        <path class="cls-5" d="M210.35,34.37c-19.07-19.07-41.91-14.14-68.09-5.82,4.74,4.71,8.68,9.78,12.38,14.77,20.18-5.9,32.75-6.84,43.18,3.58,8.45,8.45,8.44,18.29,4.45,34.65-1.16,4.73-2.65,10.03-4.36,15.99-.12.41-.23.82-.36,1.25-5.5,19.14-12.14,42.82-12.14,71.78v79.04H-.39V63.81h61.45c29.39,0,54.91-8.03,75.63-14.8-4.18-5.29-8.64-10.11-14.36-14.01-18.17,5.73-38.4,11.08-61.27,11.08H-18.11v221.25h221.25v-96.76c0-24.73,5.22-45.06,10.34-63.05.49-1.71.98-3.41,1.46-5.08,1.28-4.44,2.53-8.78,3.63-13.02,5.48-21,7.4-39.43-8.22-55.06Z"/>
      </g>
    </g>
  </g>
</svg>