<?xml version="1.0" encoding="UTF-8"?>
<svg id="Layer_2" data-name="Layer 2" xmlns="http://www.w3.org/2000/svg" viewBox="0 0 231.53 87.11">
  <defs>
    <style>
      .cls-1 {
        fill: #00a19d;
      }

      .cls-2 {
        fill: #00bab4;
      }

      .cls-3 {
        fill: #5fd2cc;
      }
    </style>
  </defs>
  <g id="Layer_1-2" data-name="Layer 1">
    <g>
      <g>
        <g>
          <path class="cls-1" d="M98.54,69.56c-.02-.15.09-.24.22-.24h2.96c.13,0,.2.07.22.2.54,4.37,4.02,6.63,8.65,6.63,4.94,0,7.78-2.57,7.78-6.59,0-4.91-4.02-5.22-8.57-5.65-5.02-.52-10.48-1.22-10.48-7.96,0-5.7,4.3-9.26,10.72-9.26,5.94,0,10.13,3.02,10.76,8.65.02.15-.09.24-.22.24h-2.87c-.13,0-.2-.07-.22-.2-.54-4.07-3.57-5.91-7.52-5.91-4.54,0-7.48,2.52-7.48,6.22,0,4.63,3.94,4.96,8.39,5.35,5.13.52,10.74,1.22,10.74,8.33,0,5.83-4.04,9.57-11.05,9.57s-11.39-3.39-12.04-9.37Z"/>
          <path class="cls-1" d="M144.04,57.17v21.02c0,.13-.09.22-.22.22h-2.48c-.13,0-.2-.04-.22-.2l-.26-1.91c-.02-.17-.15-.22-.28-.07-1.52,1.72-3.72,2.63-6.3,2.63-5.37,0-8.57-2.89-8.57-8.07v-13.63c0-.13.09-.22.22-.22h2.74c.13,0,.22.09.22.22v13.15c0,3.72,2.17,5.81,5.96,5.81s6.02-2.46,6.02-6.35v-12.61c0-.13.09-.22.22-.22h2.74c.13,0,.22.09.22.22Z"/>
          <path class="cls-1" d="M147.61,71.78c-.04-.15.07-.24.2-.24h2.65c.13,0,.2.07.24.2.7,3.61,3.44,4.63,6.44,4.63,4.09,0,5.85-1.89,5.85-4.13,0-3.13-3.46-3.26-6.74-3.44-4.07-.2-8.28-1.17-8.28-5.78,0-3.89,3.33-6.52,8.61-6.52,4.46,0,8.37,1.89,9.04,6.91.02.15-.09.24-.22.24h-2.63c-.13,0-.2-.07-.24-.2-.65-3.41-3.13-4.44-5.91-4.44-3.28,0-5.65,1.46-5.65,3.89,0,2.59,2.83,3.09,6.28,3.28,3.59.17,8.72.43,8.72,5.89,0,4.13-2.96,6.76-8.83,6.76-4.8,0-8.76-1.91-9.52-7.07Z"/>
          <path class="cls-1" d="M171.9,74.8v-15.07c0-.13-.09-.22-.22-.22h-4.07c-.13,0-.22-.09-.22-.22v-2.13c0-.13.09-.22.22-.22h2.5c1.22,0,1.91-.7,1.91-1.91v-4.59c0-.13.09-.22.22-.22h2.61c.13,0,.22.09.22.22v6.28c0,.13.09.22.22.22h4.04c.13,0,.22.09.22.22v2.13c0,.13-.09.22-.22.22h-4.04c-.13,0-.22.09-.22.22v14.33c0,1.15.41,1.57,1.57,1.57h2.7c.13,0,.22.09.22.22v2.35c0,.13-.09.22-.22.22h-3.83c-2.35,0-3.61-1.17-3.61-3.61Z"/>
          <path class="cls-1" d="M180.81,72.41c0-3.89,2.98-6.41,7.91-6.41h8c.13,0,.22-.09.22-.22v-1.57c0-3.33-2.04-5.11-5.91-5.11-3.41,0-5.5,1.46-6.11,4.35-.02.13-.11.2-.24.2h-2.76c-.15,0-.22-.09-.2-.24.76-4.3,3.94-6.91,9.31-6.91s9,2.8,9,7.89v10.33c0,.72.37,1.09,1.09,1.09h1.09c.13,0,.22.09.22.22v2.17c0,.13-.09.22-.22.22h-2.2c-1.8,0-2.83-.78-2.96-2.48-.02-.2-.09-.24-.15-.13-1.48,2.04-3.94,3.04-7.37,3.04-5.37,0-8.72-2.41-8.72-6.44ZM196.99,69.34v-.48c0-.13-.09-.22-.22-.22h-7.81c-3.13,0-4.98,1.39-4.98,3.72s2.09,3.89,5.81,3.89c4.7,0,7.2-2.44,7.2-6.91Z"/>
          <path class="cls-1" d="M205.23,51.43v-3.98c0-.13.09-.22.22-.22h3.35c.13,0,.22.09.22.22v3.98c0,.13-.09.22-.22.22h-3.35c-.13,0-.22-.09-.22-.22ZM205.53,78.19v-21.02c0-.13.09-.22.22-.22h2.74c.13,0,.22.09.22.22v21.02c0,.13-.09.22-.22.22h-2.74c-.13,0-.22-.09-.22-.22Z"/>
          <path class="cls-1" d="M213.21,78.19v-21.02c0-.13.09-.22.22-.22h2.48c.13,0,.2.04.22.2l.26,1.91c.02.17.15.22.28.07,1.52-1.72,3.72-2.63,6.31-2.63,5.37,0,8.57,2.89,8.57,8.07v13.63c0,.13-.09.22-.22.22h-2.74c-.13,0-.22-.09-.22-.22v-13.15c0-3.72-2.17-5.81-5.96-5.81s-6.02,2.46-6.02,6.35v12.61c0,.13-.09.22-.22.22h-2.74c-.13,0-.22-.09-.22-.22Z"/>
        </g>
        <g>
          <path d="M98.55,37.57l10.35-30.77c.04-.11.15-.17.26-.17h8.7c.11,0,.22.07.26.17l10.35,30.77c.04.15-.02.24-.17.24h-7.39c-.11,0-.22-.07-.26-.17l-1.52-4.91c-.04-.11-.15-.17-.26-.17h-10.68c-.11,0-.22.07-.26.17l-1.52,4.91c-.04.11-.15.17-.26.17h-7.41c-.15,0-.22-.09-.17-.24ZM110.11,26.52h6.78c.15,0,.22-.09.17-.24l-3.43-11c-.07-.22-.2-.22-.26,0l-3.44,11c-.04.15.02.24.17.24Z"/>
          <path d="M134.23,37.61l-5.91-30.74c-.02-.13.04-.24.2-.24h7.26c.13,0,.22.07.24.2l3.74,21.42c.04.2.2.2.24,0l4.63-21.42c.02-.13.11-.2.24-.2h6.7c.13,0,.22.07.24.2l4.59,21.29c.04.2.2.2.24,0l3.76-21.29c.02-.13.11-.2.24-.2h7.26c.15,0,.22.11.2.24l-5.91,30.74c-.02.13-.11.2-.24.2h-9.89c-.13,0-.22-.07-.24-.2l-3.48-17.96c-.04-.2-.22-.2-.26,0l-3.46,17.96c-.02.13-.11.2-.24.2h-9.89c-.13,0-.22-.07-.24-.2Z"/>
          <path d="M168.6,37.59v-6.07c0-.13.09-.22.22-.22h4.39c2.11,0,3.24-.59,3.24-3.46V6.85c0-.13.09-.22.22-.22h7c.13,0,.22.09.22.22v22.46c0,6.11-3.17,8.5-8.54,8.5h-6.52c-.13,0-.22-.09-.22-.22Z"/>
        </g>
      </g>
      <g>
        <path class="cls-3" d="M43.55,67.1c-12.98,0-23.55-10.56-23.55-23.55s10.56-23.55,23.55-23.55,23.55,10.56,23.55,23.55-10.56,23.55-23.55,23.55ZM43.55,24.52c-10.5,0-19.04,8.54-19.04,19.04s8.54,19.04,19.04,19.04,19.04-8.54,19.04-19.04-8.54-19.04-19.04-19.04Z"/>
        <path class="cls-2" d="M78.99,49.65c-.89,1.09-1.93,2.19-3.08,3.33,1.1,1.32,1.97,2.57,2.38,3.98,1.21-1.17,2.35-2.33,3.39-3.51-.74-1.4-1.7-2.65-2.69-3.8Z"/>
        <path class="cls-2" d="M81.64,64.68c-3.18,6.81-8.5,12.42-15.14,16.32-6.63,3.9-14.56,6.1-22.95,6.1C19.54,87.11,0,67.57,0,43.55S19.54,0,43.55,0c11.27,0,22.2,4.52,30.76,12.72,5,4.79,5.43,9.35,4.37,13.36-.42,1.58-1.07,3.08-1.77,4.47-.37.76-.76,1.49-1.14,2.18-1.33,2.49-2.59,4.83-2.59,6.91,0,3.46,2.22,5.95,4.56,8.59.41.46.83.93,1.24,1.42-.89,1.09-1.93,2.19-3.08,3.33-.47-.56-.99-1.15-1.53-1.75-2.67-3.01-5.7-6.42-5.7-11.59,0-3.21,1.59-6.17,3.12-9.04.56-1.05,1.1-2.05,1.55-3.02.74-1.59,1.26-3.11,1.3-4.65.07-2.2-.83-4.44-3.46-6.95-7.72-7.4-17.54-11.47-27.65-11.47C22.02,4.51,4.51,22.02,4.51,43.55s17.51,39.05,39.04,39.05c15.04,0,28.39-7.78,34-19.82.7-1.51,1.01-2.8,1.01-3.96,0-.65-.09-1.27-.27-1.86,1.21-1.17,2.35-2.33,3.39-3.51,1.56,2.94,2.16,6.52-.04,11.24Z"/>
        <path class="cls-1" d="M78.68,26.08c-.42,1.58-1.07,3.08-1.77,4.47,4.35,4.06,5.44,7.27,5.44,10.87,0,3.11-1.27,5.66-3.36,8.23-.89,1.09-1.93,2.19-3.08,3.33-.94.93-1.95,1.88-3.03,2.9-1.87,1.77-3.81,3.59-5.82,5.71-7.32,7.69-15.23,11.59-23.51,11.59-16.33,0-29.61-13.29-29.61-29.62s13.03-29.14,29.68-29.62c.18,0,.35,0,.53,0,6.22,0,12.3,3.05,16.94,5.74,5.24,3.04,9.24,5.62,12.26,7.91.74-1.59,1.26-3.11,1.3-4.65-3.06-2.2-6.8-4.55-11.31-7.16-5.28-3.07-12.33-6.54-19.86-6.34-19.1.54-34.06,15.53-34.06,34.12s15.31,34.13,34.12,34.13c4.78,0,9.42-1.09,13.9-3.26,4.47-2.17,8.77-5.41,12.88-9.73,1.93-2.03,3.82-3.81,5.65-5.54.79-.74,1.56-1.47,2.31-2.2,1.21-1.17,2.35-2.33,3.39-3.51,3.08-3.5,5.18-7.2,5.18-12.02,0-5.67-2.21-10.22-8.18-15.34Z"/>
      </g>
    </g>
  </g>
</svg>