<?xml version="1.0" encoding="UTF-8"?>
<svg id="Layer_2" data-name="Layer 2" xmlns="http://www.w3.org/2000/svg" xmlns:xlink="http://www.w3.org/1999/xlink" viewBox="0 0 343.57 365.71">
  <defs>
    <style>
      .cls-1 {
        opacity: .75;
      }

      .cls-2 {
        fill: #00bab4;
      }

      .cls-3 {
        fill: none;
      }

      .cls-4 {
        fill: #5fd2cc;
      }

      .cls-5 {
        fill: #00b5af;
      }

      .cls-6 {
        fill: #00bfb9;
      }

      .cls-7 {
        clip-path: url(#clippath);
      }
    </style>
    <clipPath id="clippath">
      <rect class="cls-3" x="0" width="343.57" height="365.71"/>
    </clipPath>
  </defs>
  <g id="Layer_1-2" data-name="Layer 1">
    <g class="cls-1">
      <g class="cls-7">
        <g>
          <path class="cls-4" d="M119.78,301.39c-58.36,0-105.84-47.48-105.84-105.84s47.48-105.84,105.84-105.84,105.84,47.48,105.84,105.84-47.48,105.84-105.84,105.84ZM119.78,109.98c-47.18,0-85.57,38.39-85.57,85.57s38.39,85.57,85.57,85.57,85.57-38.39,85.57-85.57-38.39-85.57-85.57-85.57Z"/>
          <path class="cls-2" d="M276.97,224.23c-3.99,5.03-8.57,9.99-13.61,15.08,5.55,5.77,9.92,10.83,12.16,16.52,5.18-5.15,10.08-10.31,14.55-15.63-3.74-6-8.48-11.2-13.1-15.97Z"/>
          <path class="cls-6" d="M290.96,290.52c-14.28,30.61-38.22,55.81-68.02,73.36-29.79,17.54-65.45,27.43-103.16,27.43-107.94,0-195.75-87.81-195.75-195.75S11.84-.19,119.78-.19c50.66,0,99.76,20.31,138.25,57.19,20.9,20.01,24.03,39.74,20.52,57.59-1.4,7.16-3.87,14.02-6.7,20.48-2.35,5.38-4.94,10.47-7.36,15.23-5.93,11.64-11.52,22.64-11.52,31.94,0,17.46,9.84,27.51,21.23,39.15.91.93,1.83,1.88,2.77,2.84-3.99,5.03-8.57,9.99-13.61,15.08-1.16-1.21-2.37-2.46-3.63-3.74-12.04-12.3-27.03-27.61-27.03-53.33,0-14.17,6.98-27.87,13.73-41.13,3.36-6.61,6.35-12.68,8.63-18.41,3.02-7.55,4.8-14.49,4.62-21.26-.27-9.86-4.73-19.36-15.66-29.83-34.71-33.24-78.83-51.55-124.24-51.55C23.01,20.08-55.7,98.79-55.7,195.56S23.01,371.03,119.78,371.03c67.58,0,127.57-34.97,152.81-89.09,3.19-6.85,4.61-12.46,4.61-17.35,0-3.17-.59-6.04-1.67-8.76,5.18-5.15,10.08-10.31,14.55-15.63,7.74,12.35,11.27,28.06.89,50.31Z"/>
          <path class="cls-5" d="M278.55,114.59c-1.4,7.16-3.87,14.02-6.7,20.48,18.23,15.03,22.44,26.15,22.44,42.5,0,18.98-6.57,33.12-17.32,46.67-3.99,5.03-8.57,9.99-13.61,15.08-4.54,4.61-9.46,9.31-14.66,14.3-7.5,7.17-15.25,14.59-23.25,22.99-32.92,34.54-68.48,52.07-105.67,52.07-73.4,0-133.11-59.72-133.11-133.11S45.27,64.57,120.06,62.45c.8-.02,1.6-.04,2.4-.04,27.95,0,55.29,13.71,76.13,25.8,24.39,14.14,42.74,25.19,56.47,34.49,3.02-7.55,4.8-14.49,4.62-21.26-13.66-8.91-30.43-18.9-50.93-30.78-23.76-13.76-55.38-29.44-89.26-28.49C33.64,44.63-33.6,112-33.6,195.56s68.81,153.37,153.38,153.37c21.48,0,42.34-4.9,62.45-14.65,20.1-9.75,39.45-24.33,57.9-43.7,7.67-8.06,15.25-15.31,22.58-22.32,4.39-4.2,8.69-8.31,12.81-12.42,5.18-5.15,10.08-10.31,14.55-15.63,14.52-17.25,24.48-36.2,24.48-62.64s-8.53-42.21-36-62.98Z"/>
        </g>
      </g>
    </g>
  </g>
</svg>