<?xml version="1.0" encoding="UTF-8"?>
<svg id="Layer_2" data-name="Layer 2" xmlns="http://www.w3.org/2000/svg" viewBox="0 0 249.57 93.14">
  <defs>
    <style>
      .cls-1 {
        fill: #3a8bd6;
      }

      .cls-2 {
        fill: #0069c8;
      }

      .cls-3 {
        fill: #87b0e4;
      }

      .cls-4 {
        fill: #9674ce;
      }
    </style>
  </defs>
  <g id="Layer_1-2" data-name="Layer 1">
    <g>
      <g>
        <g>
          <path class="cls-2" d="M97.99,68.42c-.02-.15.09-.24.22-.24h2.92c.13,0,.19.06.21.19.54,4.32,3.97,6.55,8.55,6.55,4.88,0,7.69-2.53,7.69-6.51,0-4.86-3.97-5.16-8.46-5.59-4.96-.52-10.35-1.2-10.35-7.86,0-5.63,4.25-9.15,10.59-9.15,5.86,0,10.01,2.99,10.63,8.55.02.15-.09.24-.21.24h-2.84c-.13,0-.19-.06-.22-.19-.54-4.02-3.52-5.84-7.43-5.84-4.49,0-7.39,2.49-7.39,6.14,0,4.58,3.89,4.9,8.29,5.28,5.07.52,10.61,1.2,10.61,8.23,0,5.76-4,9.45-10.91,9.45s-11.26-3.35-11.9-9.26Z"/>
          <path class="cls-2" d="M122.84,84.68v-2.3c0-.13.09-.21.21-.21h4.43c1.18,0,1.87-.06,2.36-1.1l.49-1.31c.6-1.37.3-2.08-.45-4.1l-7.26-19.44c-.04-.15.02-.26.17-.26h2.92c.11,0,.21.04.26.17l6.32,17.94c.06.17.24.17.3,0l6.32-17.94c.04-.13.15-.17.26-.17h2.9c.15,0,.22.11.17.26l-9.71,26.04c-.71,1.98-1.72,2.64-3.82,2.64h-5.65c-.13,0-.21-.09-.21-.21Z"/>
          <path class="cls-2" d="M142.5,70.61c-.04-.15.06-.24.19-.24h2.62c.13,0,.19.06.24.19.69,3.57,3.39,4.58,6.36,4.58,4.04,0,5.78-1.87,5.78-4.08,0-3.09-3.42-3.22-6.66-3.39-4.02-.19-8.18-1.16-8.18-5.71,0-3.85,3.29-6.44,8.51-6.44,4.4,0,8.27,1.87,8.94,6.83.02.15-.09.24-.21.24h-2.6c-.13,0-.19-.06-.24-.19-.64-3.37-3.09-4.38-5.84-4.38-3.24,0-5.59,1.44-5.59,3.85,0,2.56,2.79,3.05,6.21,3.24,3.54.17,8.61.43,8.61,5.82,0,4.08-2.92,6.68-8.72,6.68-4.75,0-8.66-1.89-9.41-6.98Z"/>
          <path class="cls-2" d="M166.49,73.6v-14.89c0-.13-.09-.21-.22-.21h-4.02c-.13,0-.21-.09-.21-.21v-2.11c0-.13.09-.21.21-.21h2.47c1.2,0,1.89-.69,1.89-1.89v-4.53c0-.13.09-.21.22-.21h2.58c.13,0,.21.09.21.21v6.21c0,.13.09.21.22.21h4c.13,0,.22.09.22.21v2.11c0,.13-.09.21-.22.21h-4c-.13,0-.22.09-.22.21v14.16c0,1.14.41,1.55,1.55,1.55h2.66c.13,0,.22.09.22.21v2.32c0,.13-.09.21-.22.21h-3.78c-2.32,0-3.57-1.16-3.57-3.57Z"/>
          <path class="cls-2" d="M175.17,66.55c0-6.6,4.21-11.04,10.27-11.04s9.71,4.15,9.73,10.96l-.04.84c0,.15-.09.21-.22.21h-16.5c-.13,0-.21.09-.19.24.39,4.53,3.05,7.28,7.07,7.28,2.88,0,5.18-1.27,6.29-4.49.04-.11.15-.17.26-.17h2.64c.15,0,.24.11.19.28-1.37,4.92-4.92,6.94-9.41,6.94-6.19,0-10.1-4.43-10.1-11.04ZM178.5,64.9h13.4c.13,0,.22-.09.19-.24-.41-4.06-2.92-6.57-6.62-6.57-3.95,0-6.57,2.56-7.18,6.57-.04.15.06.24.19.24Z"/>
          <path class="cls-2" d="M198.59,76.95v-20.77c0-.13.09-.21.22-.21h2.45c.13,0,.22.06.24.19l.26,1.55c.02.17.15.24.28.09,1.29-1.4,3.22-2.28,5.76-2.28,2.71,0,4.88.95,6.08,2.75.11.13.21.13.3,0,1.44-1.8,3.65-2.75,6.55-2.75,4.79,0,7.5,2.58,7.5,7.13v14.31c0,.13-.09.21-.21.21h-2.71c-.13,0-.21-.09-.21-.21v-13.77c0-3.14-1.87-4.96-4.96-4.96s-5.16,2-5.16,5.33v13.4c0,.13-.09.21-.22.21h-2.69c-.13,0-.21-.09-.21-.21v-13.77c0-3.09-1.91-4.96-5.01-4.96s-5.11,1.76-5.11,5.33v13.4c0,.13-.09.21-.22.21h-2.71c-.13,0-.22-.09-.22-.21Z"/>
          <path class="cls-2" d="M231.43,70.61c-.04-.15.06-.24.19-.24h2.62c.13,0,.19.06.24.19.69,3.57,3.39,4.58,6.36,4.58,4.04,0,5.78-1.87,5.78-4.08,0-3.09-3.42-3.22-6.66-3.39-4.02-.19-8.18-1.16-8.18-5.71,0-3.85,3.29-6.44,8.51-6.44,4.4,0,8.27,1.87,8.94,6.83.02.15-.09.24-.21.24h-2.6c-.13,0-.19-.06-.24-.19-.64-3.37-3.09-4.38-5.84-4.38-3.24,0-5.59,1.44-5.59,3.85,0,2.56,2.79,3.05,6.21,3.24,3.54.17,8.61.43,8.61,5.82,0,4.08-2.92,6.68-8.72,6.68-4.75,0-8.66-1.89-9.41-6.98Z"/>
        </g>
        <g>
          <path d="M98,37.99l10.23-30.4c.04-.11.15-.17.26-.17h8.59c.11,0,.22.06.26.17l10.23,30.4c.04.15-.02.24-.17.24h-7.3c-.11,0-.21-.06-.26-.17l-1.5-4.86c-.04-.11-.15-.17-.26-.17h-10.55c-.11,0-.21.06-.26.17l-1.5,4.86c-.04.11-.15.17-.26.17h-7.33c-.15,0-.21-.09-.17-.24ZM109.43,27.08h6.7c.15,0,.22-.09.17-.24l-3.39-10.87c-.06-.21-.19-.21-.26,0l-3.39,10.87c-.04.15.02.24.17.24Z"/>
          <path d="M133.25,38.03l-5.84-30.38c-.02-.13.04-.24.19-.24h7.17c.13,0,.22.06.24.19l3.69,21.16c.04.19.19.19.24,0l4.58-21.16c.02-.13.11-.19.24-.19h6.62c.13,0,.21.06.24.19l4.53,21.03c.04.19.19.19.24,0l3.72-21.03c.02-.13.11-.19.24-.19h7.18c.15,0,.21.11.19.24l-5.84,30.38c-.02.13-.11.19-.24.19h-9.77c-.13,0-.21-.06-.24-.19l-3.44-17.74c-.04-.19-.21-.19-.26,0l-3.42,17.74c-.02.13-.11.19-.24.19h-9.77c-.13,0-.21-.06-.24-.19Z"/>
          <path d="M167.21,38.01v-5.99c0-.13.09-.21.21-.21h4.34c2.08,0,3.2-.58,3.2-3.42V7.64c0-.13.09-.21.21-.21h6.92c.13,0,.21.09.21.21v22.19c0,6.04-3.14,8.4-8.44,8.4h-6.44c-.13,0-.21-.09-.21-.21Z"/>
        </g>
      </g>
      <g>
        <path class="cls-3" d="M40.33,69.74l-20.07-11.59v-23.17l20.07-11.59,20.07,11.59v23.17l-20.07,11.59ZM24.78,55.55l15.56,8.98,15.56-8.98v-17.97l-15.56-8.98-15.56,8.98v17.97Z"/>
        <path class="cls-4" d="M64.84,68.18c0-.14-.02-.28-.03-.42-.56.05-1.17.09-1.83.14-.85.06-1.74.12-2.66.21,0,.12.01.24.02.36.1,1.58.17,2.95.07,4.16.99-.1,1.95-.17,2.88-.23.56-.04,1.11-.08,1.66-.12.06-1.41-.03-2.8-.11-4.1Z"/>
        <path class="cls-1" d="M80.66,23.29v19.32c0,5.86-2.52,8.88-5.49,11-1.09.78-2.24,1.44-3.35,2.08-.18.1-.35.2-.53.3-2.08,1.2-4.02,2.41-5.34,4.34-1.42,2.07-1.33,4.56-1.14,7.43-.56.05-1.17.09-1.83.14-.85.06-1.74.12-2.66.21-.21-3.3-.37-6.98,1.92-10.32,1.93-2.82,4.6-4.43,7.02-5.82.11-.06.22-.13.33-.19,1.32-.76,2.51-1.44,3.5-2.23,1.89-1.51,3.07-3.4,3.07-6.94v-16.72L40.33,5.21,4.51,25.89v41.36l35.83,20.69c3.25-1.85,12.64-7.23,16.28-9.42,2.7-1.62,3.6-3.43,3.8-5.89.99-.1,1.95-.17,2.88-.23.56-.04,1.11-.08,1.66-.12-.16,3.56-1.31,7.28-6.01,10.11-4.46,2.68-17.36,10.04-17.49,10.11l-1.12.64L0,69.86V23.29L40.33,0l40.33,23.29Z"/>
        <path class="cls-2" d="M75.17,53.61c-1.09.78-2.24,1.44-3.35,2.08-.18.1-.35.2-.53.3,1.4,3.03,1.9,5.38.51,8.01-1.51,2.84-3.37,3.43-6.99,3.76-.56.05-1.17.09-1.83.14-.85.06-1.74.12-2.66.21-3.55.34-7.71,1.1-12.32,3.7-1.99,1.12-5.83,3.36-7.74,4.47l-25.73-14.85v-29.72l25.73-14.86,25.74,14.86v9.41c0,4.16,1.62,7.7,3.25,10.84.11-.06.22-.13.33-.19,1.32-.76,2.51-1.44,3.5-2.23-1.36-2.66-2.57-5.41-2.57-8.42v-12.02l-30.24-17.46L10.03,29.11v34.92l30.25,17.47,1.13-.66c.06-.04,6.15-3.6,8.81-5.1,3.73-2.1,7.12-2.78,10.2-3.11.99-.1,1.95-.17,2.88-.23.56-.04,1.11-.08,1.66-.12,4.26-.36,8.19-1.17,10.83-6.16,2.44-4.6,1.18-8.75-.62-12.5Z"/>
      </g>
    </g>
  </g>
</svg>