<?xml version="1.0" encoding="UTF-8"?>
<svg xmlns="http://www.w3.org/2000/svg" viewBox="0 0 731.37 145.01">
  <defs>
    <style>
      .awj-text { font-family: 'Proxima Nova Arabic', sans-serif; font-size: 48px; font-weight: 800; fill: #ffffff; text-anchor: end; letter-spacing: -0.02em; }
      .pillar-name { font-family: 'Proxima Nova Arabic', sans-serif; font-size: 36px; font-weight: 600; fill: #00a19d; text-anchor: end; letter-spacing: -0.01em; }
      .c1 { fill: #00bab4; } .c2 { fill: #5fd2cc; } .c3 { fill: #00a19d; }
    </style>
  </defs>
  <g transform="translate(650, 0)">
    <g><path class="c1" d="M120.5,112.8l-12.1-51.2c-.1-.4-.3-.6-.6-.6h-19.6c-.3,0-.5.2-.6.6l-12.1,51.2c-.1.5.1.8.5.8h8.7c.3,0,.5-.2.6-.5l2.1-8.4c.1-.3.3-.5.6-.5h14.6c.3,0,.5.2.6.5l2.1,8.4c.1.3.3.5.6.5h8.7c.4,0,.6-.3.5-.8ZM102.4,99.3h-9.8c-.4,0-.6-.2-.5-.6l4.9-17.1c.1-.4.4-.4.6,0l4.9,17.1c.1.4-.1.6-.5.6Z"/><path class="c1" d="M134.7,112.8l-8.1-51.2c-.1-.5.1-.8.4-.8h10c.4,0,.6.2.6.4l5.1,29.6c.1.5.4.5.6,0l6.3-29.6c.1-.5.3-.6.6-.6h9.3c.5,0,.6.2.6.6l6.3,29.4c.1.5.4.5.6,0l5.1-29.4c.1-.5.3-.6.6-.6h10c.4,0,.6.3.4.8l-8.1,51.2c-.1.5-.3.6-.6.6h-13.6c-.4,0-.6-.2-.6-.6l-4.8-24.8c-.1-.5-.4-.5-.6,0l-4.8,24.8c-.1.5-.3.6-.6.6h-13.6c-.3,0-.5-.1-.6-.6Z"/><path class="c1" d="M219.4,112.8v-8.3c0-.4.3-.6.6-.6h15.2c7.3,0,11.2-2,11.2-11.9V62.4c0-.4.3-.6.6-.6h24.2c.4,0,.6.2.6.6v31c0,21.1-11,29.4-29.6,29.4h-22.8c-.3,0-.6-.2-.6-.6Z"/></g>
    <g><polygon class="c2" points="177.4 61 159.9 37.8 142.8 61.3 77.4 60.9 77.4 46.8 142 46.8 159.5 20.2 166.4 20.2 212.8 61 177.4 61"/><polygon class="c3" points="206.7 61 159.9 0 119.7 47 70.7 19 6.7 19 6.7 6 69.6 6 117.4 33.8 159.5 0 166.4 0 237.9 61 206.7 61"/></g>
  </g>
  <text class="awj-text" x="80" y="65">أوج</text>
  <text class="pillar-name" x="80" y="100">الاستدامة</text>
</svg>
