<?xml version="1.0" encoding="UTF-8"?>
<svg id="Layer_2" data-name="Layer 2" xmlns="http://www.w3.org/2000/svg" xmlns:xlink="http://www.w3.org/1999/xlink" viewBox="0 0 343.41 387.87">
  <defs>
    <style>
      .cls-1 {
        opacity: .75;
      }

      .cls-2 {
        fill: #1d84d3;
      }

      .cls-3 {
        fill: #4e93d9;
      }

      .cls-4 {
        fill: none;
      }

      .cls-5 {
        clip-path: url(#clippath);
      }

      .cls-6 {
        fill: #87b0e4;
      }

      .cls-7 {
        fill: #9674ce;
      }
    </style>
    <clipPath id="clippath">
      <rect class="cls-4" width="343.41" height="387.87"/>
    </clipPath>
  </defs>
  <g id="Layer_1-2" data-name="Layer 1">
    <g class="cls-1">
      <g class="cls-5">
        <g>
          <path class="cls-6" d="M109.64,324.31l-85.52-49.38v-98.76l85.52-49.38,85.53,49.38v98.76l-85.53,49.38ZM43.33,263.83l66.31,38.28,66.31-38.28v-76.57l-66.31-38.28-66.31,38.28v76.57Z"/>
          <path class="cls-7" d="M214.11,317.63c-.04-.6-.08-1.19-.12-1.79-2.4.21-5,.4-7.8.6-3.61.25-7.4.5-11.36.9.02.52.06,1.04.1,1.54.44,6.74.73,12.57.31,17.72,4.23-.42,8.32-.71,12.28-.98,2.38-.15,4.75-.33,7.07-.52.27-6.01-.12-11.93-.48-17.47Z"/>
          <path class="cls-3" d="M281.53,126.31v82.36c0,24.98-10.72,37.84-23.41,46.89-4.63,3.32-9.53,6.15-14.26,8.86-.75.42-1.5.87-2.25,1.29-8.88,5.13-17.14,10.26-22.77,18.49-6.05,8.84-5.65,19.43-4.86,31.65-2.4.21-5,.4-7.8.6-3.61.25-7.4.5-11.36.9-.9-14.05-1.58-29.77,8.17-43.99,8.22-12.01,19.62-18.87,29.9-24.81.48-.27.94-.54,1.4-.81,5.61-3.23,10.68-6.13,14.91-9.49,8.05-6.44,13.1-14.51,13.1-29.57v-71.27L109.65,49.26-43.04,137.4v176.29l152.71,88.16c13.84-7.9,53.86-30.8,69.37-40.14,11.51-6.92,15.33-14.62,16.2-25.12,4.23-.42,8.32-.71,12.28-.98,2.38-.15,4.75-.33,7.07-.52-.69,15.16-5.57,31.01-25.63,43.08-19,11.43-74,42.79-74.56,43.1l-4.79,2.73-171.87-99.21V126.31L109.65,27.06l171.89,99.25Z"/>
          <path class="cls-2" d="M258.13,255.56c-4.63,3.32-9.53,6.15-14.26,8.86-.75.42-1.5.87-2.25,1.29,5.98,12.89,8.11,22.92,2.17,34.13-6.42,12.09-14.37,14.62-29.8,16.01-2.4.21-5,.4-7.8.6-3.61.25-7.4.5-11.36.9-15.14,1.44-32.84,4.69-52.5,15.78-8.47,4.77-24.87,14.32-32.99,19.06L-.31,288.88v-126.65l109.67-63.32,109.69,63.32v40.12c0,17.74,6.92,32.8,13.85,46.2.48-.27.94-.54,1.4-.81,5.61-3.23,10.68-6.13,14.91-9.49-5.8-11.32-10.95-23.08-10.95-35.9v-51.21L109.36,76.72-19.52,151.14v148.83l128.92,74.44,4.82-2.83c.25-.15,26.19-15.33,37.55-21.75,15.91-8.95,30.34-11.86,43.47-13.24,4.23-.42,8.32-.71,12.28-.98,2.38-.15,4.75-.33,7.07-.52,18.16-1.52,34.9-5,46.18-26.25,10.4-19.6,5.03-37.28-2.63-53.29Z"/>
        </g>
      </g>
    </g>
  </g>
</svg>