<?XML version="1.0" encoding="UTF-8"?>
<svg xmlns="http://www.w3.org/2000/svg" viewBox="0 0 731.37 145.01">
  <defs>
    <style>
      .awj-text { font-family: 'Proxima Nova Arabic', sans-serif; font-size: 48px; font-weight: 800; fill: #ffffff; text-anchor: end; letter-spacing: -0.02em; }
      .pillar-name { font-family: 'Proxima Nova Arabic', sans-serif; font-size: 36px; font-weight: 600; fill: #ff6b00; text-anchor: end; letter-spacing: -0.01em; }
      .c1 { fill: #ff9331; } .c2 { fill: #ffb777; } .c3 { fill: #ff6b00; }
    </style>
  </defs>
  <g transform="translate(650, 0)">
    <path class="c3" d="M130.1,112.8l15.4-42.3c.1-.4.3-.6.6-.6h5.2c.3,0,.5.1.6.4l15.4,42.3c.1.4-.1.6-.4.6h-4.2c-.3,0-.5-.1-.6-.4l-3.6-9.9c-.1-.3-.3-.5-.6-.5h-19.4c-.3,0-.5.2-.6.5l-3.6,9.9c-.1.3-.3.4-.6.4h-4.2c-.3,0-.5-.2-.4-.6ZM145.6,96h-16.4c-.4,0-.6-.2-.5-.5l8.2-23.1c-.1-.3-.4-.3-.6,0l-8.2,23.1c-.1.3.1.5.5.5h16.4Z"/><path class="c3" d="M164.4,86.5c0-9.2,5.7-15.3,14.2-15.3,6.8,0,12.1,4,13.1,10.8.1.3-.1.5-.4.5h-3.5c-.3,0-.4-.2-.5-.4-.9-4.4-4.3-7.2-8.9-7.2-6.1,0-10,4.5-10,11.6s3.8,11.7,10,11.7c4.6,0,8-2.7,8.9-7.1.1-.3.2-.4.5-.4h3.5c.3,0,.5.2.4.5-1.1,6.8-6.4,10.7-13,10.7-8.5,0-14.2-6.1-14.2-15.4Z"/><path class="c3" d="M191.2,112.8v-29c0-.3.2-.5.5-.5h3.4c.3,0,.5.1.6.3l.5,2.1c.1.3.3.4.5.2,1.8-1.9,4.5-3.2,8-3.2,3.8,0,6.8,1.3,8.5,3.8.2.3.4.3.5,0,2-2.5,5.1-3.8,9.1-3.8,6.7,0,10.5,3.6,10.5,10v19.9c0,.3-.2.5-.5.5h-3.8c-.3,0-.5-.2-.5-.5v-19.2c0-4.4-2.6-6.9-6.9-6.9s-7.2,2.8-7.2,7.4v18.7c0,.3-.2.5-.5.5h-3.8c-.3,0-.5-.2-.5-.5v-19.2c0-4.3-2.7-6.9-7-6.9s-7.1,2.4-7.1,7.4v18.7c0,.3-.2.5-.5.5h-3.8c-.3,0-.5-.2-.5-.5Z"/><path class="c1" d="M119.1,109.7l14-38.3c.1-.4.3-.6.6-.6h4.7c.2,0,.4.1.5.3l11.3,29.4c.1.4.4.4.5,0l9.5-29.4c.1-.4.2-.6.5-.6h9.2c.2,0,.4.1.5.3l9.1,29.1c.1.4.4.4.5,0l11.3-29.1c.1-.4.2-.6.5-.6h4.8c.3,0,.5.2.4.6l-14,38.3c-.1.4-.2.6-.5.6h-13.6c-.2,0-.4-.1-.5-.3l-5.1-14.7c-.1-.4-.4-.4-.5,0l-5.1,14.7c-.1.4-.2.6-.5.6h-13.6c-.3,0-.4-.2-.5-.6Z"/><path class="c2" d="M76.5,7.9h35.1L97.1,45.7 77.8,20.9 76.5,7.9 M 113.5,13l-19.4,28.6h35.8L113.5,13Z"/><path class="c1" d="M38.3,55.1l41.3-53.2 17.6,23.7 8,10.8 10.3,13.8c0,0,.1.1.1.2l13.2,17.7H155l-15.2-20.4L97.1,0 86.3,16.9 76.5,31.8 38.3,55.1Z"/>
  </g>
  <text class="awj-text" x="80" y="65">أوج</text>
  <text class="pillar-name" x="80" y="100">الابتكار</text>
</svg>
