<?xml version="1.0" encoding="UTF-8" standalone="no"?><!DOCTYPE svg PUBLIC "-//W3C//DTD SVG 1.1//EN" "http://www.w3.org/Graphics/SVG/1.1/DTD/svg11.dtd"><svg width="100%" height="100%" viewBox="0 0 626 883" version="1.1" xmlns="http://www.w3.org/2000/svg" xmlns:xlink="http://www.w3.org/1999/xlink" xml:space="preserve" xmlns:serif="http://www.serif.com/" style="fill-rule:evenodd;clip-rule:evenodd;stroke-linejoin:round;stroke-miterlimit:2;"><g><clipPath id="_clip1"><rect x="-160" y="97.253" width="785.013" height="785.013"/></clipPath><g clip-path="url(#_clip1)"><g><path d="M433.627,703.333l806.107,0l0,806.107l-806.107,0l0,-806.107Zm706.64,99.467l-607.173,0l0,607.173l607.173,0l0,-607.173Z" style="fill:#ffb777;fill-rule:nonzero;"/><path d="M149.76,801.893c2.693,9.387 5.44,18.88 8.16,28.507c23.387,-19.973 53.36,-33.787 89.44,-48.96c-0.667,-2.373 -1.36,-4.72 -2.027,-7.04c-9.627,-33.467 -17.973,-63.147 -24.48,-89.733c-31.173,13.013 -62.533,26.373 -91.467,44.24c6.187,23.76 13.2,48.107 20.347,73.013l0.027,-0.027Z" style="fill:#ff9a40;fill-rule:nonzero;"/><path d="M129.387,728.88c6.187,23.76 13.2,48.107 20.347,73.013c2.693,9.387 5.44,18.88 8.16,28.507c28.747,100.907 58.053,214.933 58.053,353.76l0,542.933l1241.413,0l0,-1241.413l-444.213,0c-128.373,0 -241.84,-30 -343.84,-62.187c-32.08,21.893 -57.12,48.907 -80.507,78.533c116.267,38.027 259.413,83.12 424.347,83.12l344.747,0l0,1042.48l-1042.453,0l-0,-443.467c0,-162.48 -37.2,-295.36 -68.08,-402.72c-0.667,-2.373 -1.36,-4.72 -2.027,-7.04c-9.627,-33.467 -17.973,-63.147 -24.48,-89.733c-22.347,-91.733 -22.4,-146.987 24.987,-194.4c58.48,-58.453 129.013,-53.227 242.267,-20.107c20.72,-28.027 42.853,-56.48 69.467,-82.853c-146.933,-46.72 -275.067,-74.4 -382.08,32.613c-87.68,87.68 -76.853,191.147 -46.133,308.96l0.027,0Z" style="fill:#ff8c1e;fill-rule:nonzero;"/><path d="M-1.52,1944.56l0,-925.947c0,-170.64 57.68,-244.613 130.907,-289.733c6.187,23.76 13.2,48.107 20.347,73.013c2.693,9.387 5.44,18.88 8.16,28.507c-39.227,33.467 -59.947,84.293 -59.947,188.213l0,826.48l1477.467,0l0,-1477.44l-684.4,-0c-104.693,0 -171.733,21.733 -221.68,55.84c-32.08,21.893 -57.12,48.907 -80.507,78.533c-11.413,14.427 -22.427,29.493 -33.68,44.88c-23.947,32.72 -48.693,66.587 -79.6,97.467c-71.787,71.787 -149.547,104.213 -212.027,130.293c-5.493,2.293 -10.88,4.533 -16.133,6.773c-0.667,-2.373 -1.36,-4.72 -2.027,-7.04c-9.627,-33.467 -17.973,-63.147 -24.48,-89.733c1.44,-0.587 2.907,-1.2 4.347,-1.813c60.027,-25.04 122.107,-50.907 180,-108.8c25.493,-25.493 46.96,-54.827 69.653,-85.867c4.373,-5.973 8.773,-12 13.253,-18.027c20.72,-28.027 42.853,-56.48 69.467,-82.853c66.693,-66.133 161.573,-119.147 333.413,-119.147l783.867,0l0,1676.4l-1676.4,0Z" style="fill:#ff9a40;fill-rule:nonzero;"/></g></g></g></svg>