<?xml version="1.0" encoding="UTF-8"?>
<svg id="Layer_1" data-name="Layer 1" xmlns="http://www.w3.org/2000/svg" xmlns:xlink="http://www.w3.org/1999/xlink" viewBox="0 0 220.12 421.33">
  <defs>
    <style>
      .cls-1 {
        fill: #00bab4;
      }

      .cls-2 {
        fill: none;
      }

      .cls-3 {
        fill: #5fd2cc;
      }

      .cls-4 {
        clip-path: url(#clippath-1);
      }

      .cls-5 {
        fill: #00b5af;
      }

      .cls-6 {
        fill: #00bfb9;
      }

      .cls-7 {
        clip-path: url(#clippath);
      }
    </style>
    <clipPath id="clippath">
      <rect class="cls-2" x="0" y="-10.57" width="220.32" height="431.9" transform="translate(220.32 410.76) rotate(-180)"/>
    </clipPath>
    <clipPath id="clippath-1">
      <rect class="cls-2" x="-158.94" y="-40.21" width="690.37" height="608.77" transform="translate(372.5 528.36) rotate(-180)"/>
    </clipPath>
  </defs>
  <g class="cls-7">
    <g class="cls-4">
      <g>
        <path class="cls-3" d="M147.81,305.91c0-95.15,77.66-172.57,173.11-172.57,95.45,0,173.11,77.41,173.11,172.57,0,95.15-77.66,172.57-173.11,172.57-95.45,0-173.11-77.41-173.11-172.57ZM180.96,305.91c0,76.94,62.79,139.53,139.97,139.53,77.18,0,139.97-62.59,139.97-139.53s-62.79-139.53-139.97-139.53c-77.18,0-139.97,62.59-139.97,139.53Z"/>
        <path class="cls-1" d="M40.67,378.39c7.59,8.66,16.01,17.15,24.89,25.71,3.05-10.28,9.45-19.46,17.5-29.14-8.49-8.36-16.11-16.39-22.64-24.38-7.23,8.43-14.29,17.58-19.75,27.82Z"/>
        <path class="cls-6" d="M40.93,460.73c23.37,49.93,62.51,91.03,111.27,119.61,48.76,28.61,107.06,44.74,168.74,44.74,176.53,0,320.15-143.17,320.15-319.17,0-175.97-143.62-319.17-320.15-319.17-82.86,0-163.17,33.14-226.15,93.24-36.79,35.12-39.94,68.53-32.12,97.9,3.08,11.6,7.86,22.57,12.99,32.74,2.75,5.58,5.6,10.9,8.35,15.99,9.81,18.24,19.06,35.42,19.06,50.62,0,25.34-16.31,43.61-33.54,62.98-2.98,3.34-6.07,6.81-9.11,10.37,6.53,8,14.15,16.03,22.64,24.38,3.48-4.13,7.26-8.39,11.24-12.82,19.66-22.04,41.93-47.02,41.93-84.91,0-23.49-11.7-45.2-22.97-66.21-4.11-7.67-8.05-15-11.4-22.14-5.44-11.63-9.25-22.8-9.58-34.07-.53-16.12,6.13-32.54,25.42-50.95C174.47,49.64,246.66,19.77,320.94,19.77c158.27,0,287,128.36,287,286.13,0,157.77-128.73,286.13-287,286.13-110.57,0-208.68-57.03-249.98-145.28-5.17-11.04-7.42-20.52-7.42-29.04,0-4.79.7-9.32,2.02-13.61-8.88-8.56-17.3-17.05-24.89-25.71-11.47,21.51-15.91,47.78.27,82.34Z"/>
        <path class="cls-5" d="M2.55,290.27c0,35.35,15.51,62.45,38.12,88.12,7.59,8.66,16.01,17.15,24.89,25.71,5.5,5.32,11.17,10.67,16.97,16.12,13.46,12.65,27.34,25.74,41.56,40.61,30.19,31.59,61.82,55.38,94.69,71.27,32.88,15.89,67.02,23.89,102.15,23.89,138.31,0,250.84-112.17,250.84-250.09,0-136.23-109.97-246.09-250.38-250.05-55.39-1.49-107.16,23.99-146,46.46-33.15,19.13-60.62,36.38-83.13,52.5.33,11.27,4.14,22.43,9.58,34.07,22.24-16.78,51.61-35.72,90.16-57.99,34.11-19.69,78.82-42.06,124.53-42.06,1.33,0,2.62,0,3.91.03,122.37,3.47,218.19,98.83,218.19,217.04,0,119.67-97.65,217.04-217.7,217.04-60.85,0-119.02-28.58-172.85-84.91-14.82-15.5-29.04-28.88-42.79-41.83-7.89-7.43-15.35-14.44-22.24-21.25-8.49-8.36-16.11-16.39-22.64-24.38-15.41-18.8-24.73-37.5-24.73-60.3,0-26.37,7.99-49.89,39.97-79.66-5.14-10.18-9.91-21.15-12.99-32.74C18.82,215.37,2.55,248.74,2.55,290.27Z"/>
      </g>
    </g>
  </g>
</svg>