<?xml version="1.0" encoding="UTF-8"?>
<svg id="Layer_1" data-name="Layer 1" xmlns="http://www.w3.org/2000/svg" xmlns:xlink="http://www.w3.org/1999/xlink" viewBox="0 0 234.38 330.85">
  <defs>
    <style>
      .cls-1 {
        fill: none;
      }

      .cls-2 {
        fill: #1d84d3;
      }

      .cls-3 {
        fill: #4d92d9;
      }

      .cls-4 {
        fill: #87b0e4;
      }

      .cls-5 {
        fill: #9674ce;
      }

      .cls-6 {
        clip-path: url(#clippath);
      }
    </style>
    <clipPath id="clippath">
      <rect class="cls-1" x="-96.47" width="330.85" height="330.85" transform="translate(137.91 330.85) rotate(-180)"/>
    </clipPath>
  </defs>
  <g class="cls-6">
    <g>
      <path class="cls-4" d="M135.84,197.42v149.31l129.3,74.65,129.3-74.65v-149.31l-129.3-74.65-129.3,74.65ZM365.39,329.95l-100.25,57.88-100.25-57.88v-115.76l100.25-57.88,100.25,57.88v115.76Z"/>
      <path class="cls-5" d="M106.48,106.45c3.52-.29,7.09-.55,10.69-.78,5.98-.41,12.17-.84,18.56-1.48-.64,7.79-.2,16.59.46,26.79.06.76.12,1.54.15,2.32-5.98.61-11.71.99-17.17,1.37-4.24.29-8.16.58-11.8.9-.06-.9-.12-1.8-.17-2.7-.55-8.37-1.13-17.31-.73-26.41Z"/>
      <path class="cls-3" d="M5.26,422.1v-124.52c0-37.77,16.21-57.2,35.39-70.89,7-5.03,14.41-9.3,21.56-13.39,1.13-.64,2.27-1.31,3.4-1.95,13.42-7.76,25.91-15.51,34.43-27.95,9.15-13.36,8.54-29.37,7.35-47.85,3.63-.32,7.55-.61,11.8-.9,5.46-.38,11.19-.76,17.17-1.37,1.36,21.24,2.38,45-12.35,66.5-12.44,18.16-29.66,28.53-45.21,37.51-.73.41-1.42.81-2.12,1.22-8.48,4.88-16.15,9.27-22.55,14.35-12.17,9.73-19.81,21.93-19.81,44.71v107.75l230.82,133.26,230.85-133.26V138.82L265.1,5.53c-20.92,11.94-81.43,46.57-104.88,60.69-17.4,10.46-23.18,22.11-24.49,37.97-6.39.64-12.58,1.07-18.56,1.48-3.6.23-7.18.49-10.69.78,1.05-22.92,8.42-46.89,38.76-65.14,28.73-17.29,111.88-64.7,112.72-65.16l7.23-4.13,259.84,150v300.08l-259.9,150.05L5.26,422.1Z"/>
      <path class="cls-2" d="M36.66,146.14c17.05-32.13,42.36-37.39,69.81-39.68,3.52-.29,7.09-.55,10.69-.78,5.98-.41,12.17-.84,18.56-1.48,19.84-2.09,41.66-6.48,65.71-20.02,17.17-9.7,56.39-32.65,56.77-32.89l7.29-4.27,194.91,112.55v225.01l-194.85,112.52-194.88-112.52v-77.42c0-19.38-7.79-37.16-16.56-54.27,6.39-5.08,14.06-9.47,22.55-14.35.7-.41,1.39-.81,2.12-1.22,10.49,20.25,20.95,43.03,20.95,69.84v60.66l165.83,95.73,165.8-95.73v-191.48l-165.77-95.7c-12.29,7.18-37.07,21.62-49.88,28.82-29.72,16.76-56.48,21.67-79.37,23.85-5.98.61-11.71.99-17.17,1.37-4.24.29-8.16.58-11.8.9-23.33,2.09-35.36,5.93-45.06,24.2-8.98,16.94-5.75,32.1,3.28,51.6-1.13.64-2.27,1.31-3.4,1.95-7.15,4.1-14.56,8.37-21.56,13.39-11.59-24.2-19.7-50.93-3.98-80.56Z"/>
    </g>
  </g>
</svg>