<?xml version="1.0" encoding="UTF-8"?>
<svg id="Layer_2" data-name="Layer 2" xmlns="http://www.w3.org/2000/svg" viewBox="0 0 387.47 430.26">
  <defs>
    <style>
      .cls-1 {
        fill: #0f1822;
      }
    </style>
  </defs>
  <g id="Layer_1-2" data-name="Layer 1">
    <g>
      <path class="cls-1" d="M1.72,429.18l46.78-139.07c.2-.49.69-.79,1.18-.79h39.31c.49,0,.98.29,1.18.79l46.78,139.07c.2.69-.1,1.08-.79,1.08h-33.42c-.49,0-.98-.29-1.18-.79l-6.88-22.21c-.2-.49-.69-.79-1.18-.79h-48.26c-.49,0-.98.29-1.18.79l-6.88,22.21c-.2.49-.69.79-1.18.79H2.51c-.69,0-.98-.39-.79-1.08ZM54.01,379.25h30.66c.69,0,.98-.39.79-1.08l-15.53-49.73c-.29-.98-.88-.98-1.18,0l-15.53,49.73c-.2.69.1,1.08.79,1.08Z"/>
      <path class="cls-1" d="M163,429.37l-26.73-138.97c-.1-.59.2-1.08.88-1.08h32.83c.59,0,.98.29,1.08.88l16.9,96.81c.2.88.88.88,1.08,0l20.93-96.81c.1-.59.49-.88,1.08-.88h30.27c.59,0,.98.29,1.08.88l20.74,96.22c.2.88.88.88,1.08,0l17-96.22c.1-.59.49-.88,1.08-.88h32.83c.69,0,.98.49.88,1.08l-26.73,138.97c-.1.59-.49.88-1.08.88h-44.72c-.59,0-.98-.29-1.08-.88l-15.72-81.18c-.2-.88-.98-.88-1.18,0l-15.63,81.18c-.1.59-.49.88-1.08.88h-44.72c-.59,0-.98-.29-1.08-.88Z"/>
      <path class="cls-1" d="M318.38,429.27v-27.42c0-.59.39-.98.98-.98h19.85c9.53,0,14.64-2.65,14.64-15.63v-94.94c0-.59.39-.98.98-.98h31.65c.59,0,.98.39.98.98v101.52c0,27.62-14.35,38.43-38.62,38.43h-29.48c-.59,0-.98-.39-.98-.98Z"/>
    </g>
    <g>
      <polygon class="cls-1" points="261.79 242.35 207.51 167.74 153.69 242.33 0 242.1 .03 221.1 142.95 221.31 203.77 137.02 211.11 137.02 287.79 242.35 261.79 242.35"/>
      <polygon class="cls-1" points="311.05 242.35 207.51 100.11 133.23 203.06 71.85 162.48 .01 162.48 .01 141.47 78.17 141.47 127.99 174.41 203.77 69.38 211.11 69.38 337.03 242.35 311.05 242.35"/>
      <polygon class="cls-1" points="361.49 242.35 207.57 30.92 86.05 202.05 .01 202.05 .01 181.04 75.21 181.04 203.76 0 211.04 0 387.47 242.35 361.49 242.35"/>
    </g>
  </g>
</svg>