<?xml version="1.0" encoding="UTF-8"?>
<svg id="Layer_2" data-name="Layer 2" xmlns="http://www.w3.org/2000/svg" viewBox="0 0 278.16 75.99">
  <defs>
    <style>
      .cls-1 {
        fill: #ff9331;
      }

      .cls-2 {
        fill: #ff6b00;
      }

      .cls-3 {
        fill: #ffb777;
      }
    </style>
  </defs>
  <g id="Layer_1-2" data-name="Layer 1">
    <g>
      <g>
        <g>
          <path class="cls-2" d="M92.88,72.51v-31.2c0-.13.09-.22.22-.22h2.91c.13,0,.22.09.22.22v31.2c0,.13-.09.22-.22.22h-2.91c-.13,0-.22-.09-.22-.22Z"/>
          <path class="cls-2" d="M102.35,72.51v-21.34c0-.13.09-.22.22-.22h2.52c.13,0,.2.04.22.2l.26,1.94c.02.18.15.22.29.07,1.54-1.74,3.77-2.67,6.4-2.67,5.45,0,8.69,2.93,8.69,8.19v13.84c0,.13-.09.22-.22.22h-2.78c-.13,0-.22-.09-.22-.22v-13.35c0-3.77-2.21-5.89-6.05-5.89s-6.11,2.49-6.11,6.44v12.8c0,.13-.09.22-.22.22h-2.78c-.13,0-.22-.09-.22-.22Z"/>
          <path class="cls-2" d="M125.63,72.51v-21.34c0-.13.09-.22.22-.22h2.52c.13,0,.2.04.22.2l.26,1.94c.02.18.15.22.29.07,1.54-1.74,3.77-2.67,6.4-2.67,5.45,0,8.69,2.93,8.69,8.19v13.84c0,.13-.09.22-.22.22h-2.78c-.13,0-.22-.09-.22-.22v-13.35c0-3.77-2.21-5.89-6.05-5.89s-6.11,2.49-6.11,6.44v12.8c0,.13-.09.22-.22.22h-2.78c-.13,0-.22-.09-.22-.22Z"/>
          <path class="cls-2" d="M147.74,61.81c0-6.86,4.13-11.32,10.48-11.32s10.48,4.46,10.48,11.32-4.1,11.36-10.48,11.36-10.48-4.44-10.48-11.36ZM165.52,61.81c0-5.19-2.87-8.54-7.3-8.54s-7.3,3.35-7.3,8.54,2.87,8.61,7.3,8.61,7.3-3.38,7.3-8.61Z"/>
          <path class="cls-2" d="M177.09,72.56l-7.92-21.34c-.04-.15.02-.26.18-.26h3c.11,0,.22.04.26.18l6.49,18.36c.07.18.22.18.29,0l6.51-18.36c.04-.13.15-.18.26-.18h2.98c.15,0,.22.11.18.26l-7.92,21.34c-.04.13-.13.18-.24.18h-3.82c-.11,0-.2-.04-.24-.18Z"/>
          <path class="cls-2" d="M189.91,66.64c0-3.95,3.02-6.51,8.03-6.51h8.12c.13,0,.22-.09.22-.22v-1.59c0-3.38-2.07-5.19-6-5.19-3.46,0-5.58,1.48-6.2,4.41-.02.13-.11.2-.24.2h-2.8c-.15,0-.22-.09-.2-.24.77-4.37,3.99-7.02,9.44-7.02s9.14,2.85,9.14,8.01v10.48c0,.73.38,1.1,1.1,1.1h1.1c.13,0,.22.09.22.22v2.21c0,.13-.09.22-.22.22h-2.23c-1.83,0-2.87-.79-3-2.52-.02-.2-.09-.24-.15-.13-1.5,2.07-3.99,3.09-7.48,3.09-5.45,0-8.85-2.45-8.85-6.53ZM206.33,63.53v-.49c0-.13-.09-.22-.22-.22h-7.92c-3.18,0-5.05,1.41-5.05,3.77s2.12,3.95,5.89,3.95c4.77,0,7.3-2.47,7.3-7.02Z"/>
          <path class="cls-2" d="M216.85,69.07v-15.29c0-.13-.09-.22-.22-.22h-4.13c-.13,0-.22-.09-.22-.22v-2.16c0-.13.09-.22.22-.22h2.54c1.24,0,1.94-.71,1.94-1.94v-4.66c0-.13.09-.22.22-.22h2.65c.13,0,.22.09.22.22v6.38c0,.13.09.22.22.22h4.1c.13,0,.22.09.22.22v2.16c0,.13-.09.22-.22.22h-4.1c-.13,0-.22.09-.22.22v14.54c0,1.17.42,1.59,1.59,1.59h2.74c.13,0,.22.09.22.22v2.38c0,.13-.09.22-.22.22h-3.88c-2.38,0-3.66-1.19-3.66-3.66Z"/>
          <path class="cls-2" d="M227.98,45.35v-4.04c0-.13.09-.22.22-.22h3.4c.13,0,.22.09.22.22v4.04c0,.13-.09.22-.22.22h-3.4c-.13,0-.22-.09-.22-.22ZM228.28,72.51v-21.34c0-.13.09-.22.22-.22h2.78c.13,0,.22.09.22.22v21.34c0,.13-.09.22-.22.22h-2.78c-.13,0-.22-.09-.22-.22Z"/>
          <path class="cls-2" d="M235.08,61.81c0-6.86,4.13-11.32,10.48-11.32s10.48,4.46,10.48,11.32-4.1,11.36-10.48,11.36-10.48-4.44-10.48-11.36ZM252.87,61.81c0-5.19-2.87-8.54-7.3-8.54s-7.3,3.35-7.3,8.54,2.87,8.61,7.3,8.61,7.3-3.38,7.3-8.61Z"/>
          <path class="cls-2" d="M259.55,72.51v-21.34c0-.13.09-.22.22-.22h2.52c.13,0,.2.04.22.2l.26,1.94c.02.18.15.22.29.07,1.54-1.74,3.77-2.67,6.4-2.67,5.45,0,8.69,2.93,8.69,8.19v13.84c0,.13-.09.22-.22.22h-2.78c-.13,0-.22-.09-.22-.22v-13.35c0-3.77-2.21-5.89-6.05-5.89s-6.11,2.49-6.11,6.44v12.8c0,.13-.09.22-.22.22h-2.78c-.13,0-.22-.09-.22-.22Z"/>
        </g>
        <g>
          <path d="M92.89,32.09L103.4.86c.04-.11.15-.18.26-.18h8.83c.11,0,.22.07.26.18l10.5,31.22c.04.15-.02.24-.18.24h-7.5c-.11,0-.22-.07-.26-.18l-1.54-4.99c-.04-.11-.15-.18-.26-.18h-10.84c-.11,0-.22.07-.26.18l-1.54,4.99c-.04.11-.15.18-.26.18h-7.53c-.15,0-.22-.09-.18-.24ZM104.63,20.88h6.88c.15,0,.22-.09.18-.24l-3.49-11.17c-.07-.22-.2-.22-.26,0l-3.49,11.17c-.04.15.02.24.18.24Z"/>
          <path d="M129.11,32.13L123.1.93c-.02-.13.04-.24.2-.24h7.37c.13,0,.22.07.24.2l3.8,21.74c.04.2.2.2.24,0l4.7-21.74c.02-.13.11-.2.24-.2h6.8c.13,0,.22.07.24.2l4.66,21.6c.04.2.2.2.24,0l3.82-21.6c.02-.13.11-.2.24-.2h7.37c.15,0,.22.11.2.24l-6,31.2c-.02.13-.11.2-.24.2h-10.04c-.13,0-.22-.07-.24-.2l-3.53-18.23c-.04-.2-.22-.2-.26,0l-3.51,18.23c-.02.13-.11.2-.24.2h-10.04c-.13,0-.22-.07-.24-.2Z"/>
          <path d="M163.99,32.11v-6.16c0-.13.09-.22.22-.22h4.46c2.14,0,3.29-.6,3.29-3.51V.91c0-.13.09-.22.22-.22h7.11c.13,0,.22.09.22.22v22.8c0,6.2-3.22,8.63-8.67,8.63h-6.62c-.13,0-.22-.09-.22-.22Z"/>
        </g>
      </g>
      <g>
        <path class="cls-3" d="M56.26,56.27H19.72V19.73h36.54v36.54ZM24.23,51.76h27.52v-27.52h-27.52v27.52Z"/>
        <path class="cls-1" d="M50.64,5.4c-.75.24-1.5.48-2.27.73-.91.3-1.84.6-2.8.91,1.46.99,2.6,2.22,3.66,3.56.18-.06.37-.12.55-.18,1.46-.48,2.8-.91,4.02-1.27-.94-1.27-1.94-2.56-3.15-3.76Z"/>
        <path class="cls-2" d="M70.05,20.88c1.39-5.34,1.88-10.03-2.09-14-4.86-4.86-10.66-3.59-17.32-1.48-.75.24-1.5.48-2.27.73-.91.3-1.84.6-2.8.91-4.62,1.46-9.76,2.82-15.58,2.82H9.86v56.27h56.27v-24.61c0-6.29,1.33-11.46,2.63-16.03-1.06-.91-2.42-1.53-4.05-2.22-1.4,4.86-3.09,10.89-3.09,18.26v20.1H14.36V14.37h15.63c7.48,0,13.96-2.04,19.23-3.76.18-.06.37-.12.55-.18,1.46-.48,2.8-.91,4.02-1.27,5.14-1.5,8.33-1.74,10.98.91,2.15,2.15,2.15,4.65,1.13,8.81,1.41.59,2.83,1.2,4.14,2.01Z"/>
        <path class="cls-1" d="M75.99,34.02v41.97H0V0h35.53c7.79,0,12.09,2.4,15.11,5.4-.75.24-1.5.48-2.27.73-.91.3-1.84.6-2.8.91-2.26-1.55-5.3-2.53-10.04-2.53H4.51v66.97h66.97v-37.46c0-4.71-.94-7.01-2.72-8.53-1.06-.91-2.42-1.53-4.05-2.22-.24-.1-.48-.2-.74-.31-2.83-1.18-6.36-2.65-9.61-5.9-1.4-1.4-2.52-2.94-3.61-4.42-.51-.7-1.01-1.38-1.52-2.03.18-.06.37-.12.55-.18,1.46-.48,2.8-.91,4.02-1.27.2.28.4.55.6.82,1.03,1.41,2,2.74,3.16,3.9,2.62,2.62,5.44,3.8,8.16,4.93.07.03.13.05.2.08,1.41.59,2.83,1.2,4.14,2.01,3.32,2.05,5.94,5.4,5.94,13.13Z"/>
      </g>
    </g>
  </g>
</svg>