<?xml version="1.0" encoding="UTF-8"?>
<svg id="Layer_2" data-name="Layer 2" xmlns="http://www.w3.org/2000/svg" xmlns:xlink="http://www.w3.org/1999/xlink" viewBox="0 0 343.57 365.71">
  <defs>
    <style>
      .cls-1 {
        fill: #ff9331;
      }

      .cls-2 {
        fill: none;
      }

      .cls-3 {
        fill: #ff9b41;
      }

      .cls-4 {
        fill: #ff6b00;
      }

      .cls-5 {
        fill: #ffb777;
      }

      .cls-6 {
        clip-path: url(#clippath);
      }
    </style>
    <clipPath id="clippath">
      <rect class="cls-2" width="343.57" height="365.71"/>
    </clipPath>
  </defs>
  <g id="Layer_1-2" data-name="Layer 1">
    <g class="cls-6">
      <g>
        <path class="cls-5" d="M197.35,295.72H24.63V123h172.72v172.72ZM45.95,274.41h130.09v-130.09H45.95v130.09Z"/>
        <path class="cls-1" d="M242.94,119.01c-1.39,5.69-3.19,12.06-5.25,19.22-.15.5-.28.99-.43,1.5,7.72,3.27,14.15,6.22,19.15,10.49.59-2.06,1.18-4.1,1.75-6.1,1.54-5.34,3.04-10.56,4.36-15.65-6.2-3.81-12.92-6.68-19.59-9.46Z"/>
        <path class="cls-3" d="M290.58,190.55v198.4H-68.6V29.78H99.35c36.82,0,57.15,11.35,71.45,25.51,5.7,5.66,10.44,11.75,14.88,17.76.96,1.28,1.9,2.57,2.84,3.85,4.86,6.65,9.46,12.94,14.92,18.4,12.41,12.41,25.7,17.95,38.56,23.32.31.13.62.25.94.39-1.39,5.69-3.19,12.06-5.25,19.22-.15.5-.28.99-.43,1.5-1.12-.47-2.29-.95-3.47-1.45-13.38-5.58-30.05-12.53-45.43-27.91-6.63-6.63-11.93-13.88-17.05-20.88-2.41-3.29-4.78-6.52-7.21-9.61-5.02-6.36-10.39-12.15-17.27-16.84-10.71-7.31-25.07-11.97-47.49-11.97H-47.29v316.56h316.56v-177.09c0-22.26-4.44-33.15-12.85-40.33.59-2.06,1.18-4.1,1.75-6.1,1.54-5.34,3.04-10.56,4.36-15.65,15.69,9.68,28.04,25.52,28.04,62.08Z"/>
        <path class="cls-4" d="M252.66,62.29c-22.93-22.93-50.38-17-81.86-7,5.7,5.66,10.44,11.75,14.88,17.76,24.27-7.09,39.38-8.22,51.91,4.31,10.16,10.16,10.15,21.99,5.35,41.65-1.39,5.69-3.19,12.06-5.25,19.22-.15.5-.28.99-.43,1.5-6.61,23.01-14.59,51.48-14.59,86.29v95.02H-.69V97.68h73.87c35.34,0,66.01-9.65,90.92-17.79-5.02-6.36-10.39-12.15-17.27-16.84-21.84,6.89-46.16,13.32-73.66,13.32H-21.99v265.98H243.98v-116.33c0-29.73,6.28-54.17,12.43-75.8.59-2.06,1.18-4.1,1.75-6.1,1.54-5.34,3.04-10.56,4.36-15.65,6.59-25.24,8.9-47.41-9.88-66.19Z"/>
      </g>
    </g>
  </g>
</svg>