<?xml version="1.0" encoding="UTF-8"?>
<svg id="Layer_2" data-name="Layer 2" xmlns="http://www.w3.org/2000/svg" xmlns:xlink="http://www.w3.org/1999/xlink" viewBox="0 0 875.9 539.3">
  <defs>
    
    <clipPath id="clippath">
      <rect class="cls-4" x=".12" y=".12" width="875.65" height="539.05"></rect>
    </clipPath>
  </defs>
  <g id="Layer_1-2" data-name="Layer 1">
    <g>
      <g class="cls-5">
        <g>
          <polygon class="cls-2" points="476.67 498.06 83.38 226.98 113.92 180.83 536.68 470.21 476.67 498.06"></polygon>
          <polygon class="cls-2" points="546.62 442.2 485.89 442.2 476.67 498.06 574.91 498.16 716.7 301.63 937.9 592.21 937.9 511.53 726.2 220.69 706.86 220.68 546.62 442.2"></polygon>
          <polygon class="cls-1" points="726.77 44.21 707.43 44.21 507.78 320.93 376.52 234.14 133.95 234.14 -11.39 444.44 -11.39 540.43 163.59 289.48 359.88 289.48 521.58 396.41 717.28 125.16 952.41 448.81 1020.86 448.81 726.77 44.21"></polygon>
          <polygon class="cls-3" points="707.41 -138.58 368.72 338.39 81.81 338.39 81.81 385.38 94.42 393.71 95.6 393.73 397.29 393.73 717.46 -57.13 1085.27 448.81 1152.21 448.81 726.59 -138.58 707.41 -138.58"></polygon>
          <rect class="cls-2" x="-12.44" y="180.83" width="126.37" height="55.34"></rect>
          <polygon class="cls-3" points="94.42 393.71 -11.39 323.49 -11.02 257.84 124.92 347.53 94.42 393.71"></polygon>
        </g>
      </g>
      <rect class="cls-4" x=".12" y=".12" width="875.65" height="539.05"></rect>
    </g>
  </g>
</svg>