<svg xmlns="http://www.w3.org/2000/svg" viewBox="0 0 133 133">
  <path fill="#ffb777" d="M98.23,98.23h-63.8v-63.8h63.8v63.8ZM42.31,90.36h48.05v-48.05h-48.05v48.05Z"></path>
  <path fill="#ff9331" d="M88.42,9.43c-1.31.42-2.62.84-3.96,1.28-1.59.52-3.22,1.05-4.89,1.58,2.55,1.73,4.53,3.87,6.38,6.22.32-.11.64-.21.95-.31,2.55-.83,4.88-1.59,7.01-2.21-1.64-2.22-3.39-4.47-5.5-6.56Z"></path>
  <path fill="#ff6b00" d="M122.3,36.46c2.43-9.32,3.29-17.51-3.64-24.45-8.48-8.48-18.62-6.27-30.24-2.58-1.31.42-2.62.84-3.96,1.28-1.59.52-3.22,1.05-4.89,1.58-8.07,2.54-17.04,4.92-27.2,4.92H17.21v98.25h98.25v-42.97c0-10.98,2.32-20,4.6-27.99-1.85-1.58-4.22-2.68-7.08-3.88-2.44,8.49-5.39,19.01-5.39,31.87v35.1H25.08V25.09h27.29c13.05,0,24.38-3.57,33.58-6.57.32-.11.64-.21.95-.31,2.55-.83,4.88-1.59,7.01-2.21,8.97-2.62,14.55-3.04,19.18,1.59,3.75,3.75,3.75,8.12,1.98,15.38,2.46,1.03,4.94,2.09,7.23,3.5Z"></path>
  <path fill="#ff9331" d="M132.67,59.39v73.28H0V0h62.04c13.59,0,21.1,4.2,26.38,9.43-1.31.42-2.62.84-3.96,1.28-1.59.52-3.22,1.05-4.89,1.58-3.95-2.71-9.25-4.42-17.53-4.42H7.87v116.93h116.93V59.39c0-8.22-1.64-12.24-4.75-14.89-1.85-1.58-4.22-2.68-7.08-3.88-.42-.17-.84-.35-1.28-.54-4.94-2.06-11.1-4.63-16.77-10.3-2.45-2.45-4.41-5.12-6.31-7.71-.89-1.22-1.76-2.41-2.66-3.55.32-.11.64-.21.95-.31,2.55-.83,4.88-1.59,7.01-2.21.35.48.7.95,1.05,1.42,1.8,2.46,3.49,4.78,5.52,6.8,4.58,4.58,9.49,6.63,14.24,8.6.12.05.23.09.35.14,2.46,1.03,4.94,2.09,7.23,3.5,5.8,3.57,10.37,9.42,10.37,22.93Z"></path>
</svg>