<svg xmlns="http://www.w3.org/2000/svg" viewBox="0 0 153 153">
  <path fill="#5fd2cc" d="M76.04,117.16c-22.67,0-41.11-18.44-41.11-41.11s18.44-41.11,41.11-41.11,41.11,18.44,41.11,41.11-18.44,41.11-41.11,41.11ZM76.04,42.8c-18.33,0-33.24,14.91-33.24,33.24s14.91,33.24,33.24,33.24,33.24-14.91,33.24-33.24-14.91-33.24-33.24-33.24Z"></path>
  <path fill="#00bab4" d="M137.9,86.68c-1.55,1.9-3.36,3.82-5.38,5.81,1.91,2.31,3.43,4.49,4.16,6.94,2.11-2.04,4.11-4.06,5.91-6.12-1.3-2.44-2.98-4.62-4.69-6.63Z"></path>
  <path fill="#00bab4" d="M142.53,112.93c-5.55,11.89-14.85,21.69-26.43,28.5-11.58,6.82-25.43,10.66-40.07,10.66C34.11,152.08,0,117.97,0,76.04S34.11,0,76.03,0c19.68,0,38.75,7.9,53.71,22.21,8.74,8.37,9.49,16.33,7.63,23.32-.73,2.76-1.87,5.38-3.09,7.8-.65,1.33-1.33,2.6-1.98,3.81-2.33,4.35-4.53,8.44-4.53,12.06,0,6.04,3.87,10.39,7.97,15,.71.8,1.44,1.62,2.16,2.47-1.55,1.9-3.36,3.82-5.38,5.81-.83-.98-1.72-2-2.67-3.05-4.67-5.25-9.96-11.2-9.96-20.23,0-5.6,2.78-10.77,5.46-15.77.98-1.83,1.91-3.57,2.71-5.27,1.29-2.77,2.2-5.43,2.28-8.12.13-3.84-1.46-7.75-6.04-12.14-13.48-12.92-30.63-20.03-48.27-20.03C38.45,7.87,7.87,38.45,7.87,76.04s30.57,68.17,68.16,68.17c26.26,0,49.56-13.59,59.37-34.61,1.23-2.63,1.76-4.89,1.76-6.92,0-1.14-.17-2.22-.48-3.24,2.11-2.04,4.11-4.06,5.91-6.12,2.72,5.12,3.78,11.38-.06,19.62Z"></path>
  <path fill="#00a19d" d="M137.37,45.54c-.73,2.76-1.87,5.38-3.09,7.8,7.6,7.09,9.49,12.7,9.49,18.98,0,5.43-2.21,9.89-5.87,14.37-1.55,1.9-3.36,3.82-5.38,5.81-1.64,1.62-3.41,3.29-5.28,5.06-3.27,3.09-6.64,6.27-10.16,9.97-12.78,13.42-26.6,20.23-41.05,20.23-28.51,0-51.7-23.2-51.7-51.71s22.76-50.88,51.82-51.71c.31,0,.61,0,.93,0,10.86,0,21.47,5.33,29.57,10.02,9.16,5.31,16.13,9.82,21.41,13.81,1.29-2.77,2.2-5.43,2.28-8.12-5.34-3.84-11.87-7.95-19.74-12.51-9.23-5.35-21.52-11.42-34.68-11.07-33.34.94-59.46,27.12-59.46,59.57s26.72,59.58,59.57,59.58c8.34,0,16.45-1.9,24.26-5.69,7.81-3.79,15.32-9.45,22.49-16.98,3.38-3.54,6.68-6.66,9.87-9.67,1.38-1.3,2.72-2.57,4.03-3.84,2.11-2.04,4.11-4.06,5.91-6.12,5.37-6.12,9.05-12.57,9.05-20.99,0-9.89-3.87-17.85-14.28-26.78Z"></path>
</svg>