<?xml version="1.0" encoding="UTF-8"?>
<svg id="Layer_2" data-name="Layer 2" xmlns="http://www.w3.org/2000/svg" xmlns:xlink="http://www.w3.org/1999/xlink" viewBox="0 0 876.22 539.3">
  
  <g id="Layer_1-2" data-name="Layer 1">
    <g>
      <g>
        <g>
          <polygon class="awj-chev awj-chev-1" fill="rgba(255,255,255,0.06)" points="-7.42 214.36 -7.42 274.18 160.4 274.18 525.95 500.86 716.89 500.86 858.21 334.94 990.48 471.02 1033.37 429.32 855.29 246.11 689.26 441.04 542.99 441.04 177.44 214.36 -7.42 214.36"></polygon>
          <polygon class="awj-chev awj-chev-2" fill="rgba(255,255,255,0.10)" points="691.05 262.56 623.08 214.36 381.78 214.36 156.48 441.04 -3.09 441.04 -3.09 500.86 181.37 500.86 406.66 274.18 604.02 274.18 700.17 342.36 959.45 50.48 914.73 10.75 691.05 262.56"></polygon>
          <polygon class="awj-chev awj-chev-3" fill="rgba(255,255,255,0.14)" points="834.22 -46.35 495.86 327.7 155.03 327.7 -.56 187.72 -40.57 232.19 132.08 387.52 522.36 387.52 878.53 -6.16 834.22 -46.35"></polygon>
        </g>
      </g>
      
    </g>
  </g>
</svg>