<?xml version="1.0" encoding="UTF-8"?>
<svg id="Layer_2" data-name="Layer 2" xmlns="http://www.w3.org/2000/svg" viewBox="0 0 688.65 162.61">
  
  <g id="Layer_1-2" data-name="Layer 1">
    <g>
      <g>
        <path fill="#ffffff" d="M173.05,112.49l21.03-62.51c.09-.22.31-.35.53-.35h17.67c.22,0,.44.13.53.35l21.03,62.51c.09.31-.04.49-.35.49h-15.02c-.22,0-.44-.13-.53-.35l-3.09-9.98c-.09-.22-.31-.35-.53-.35h-21.69c-.22,0-.44.13-.53.35l-3.09,9.98c-.09.22-.31.35-.53.35h-15.07c-.31,0-.44-.18-.35-.49ZM196.55,90.05h13.78c.31,0,.44-.18.35-.49l-6.98-22.35c-.13-.44-.4-.44-.53,0l-6.98,22.35c-.09.31.04.49.35.49Z"></path>
        <path fill="#ffffff" d="M245.55,112.58l-12.02-62.47c-.04-.27.09-.49.4-.49h14.75c.27,0,.44.13.49.4l7.6,43.52c.09.4.4.4.49,0l9.41-43.52c.04-.27.22-.4.49-.4h13.61c.26,0,.44.13.49.4l9.32,43.25c.09.4.4.4.49,0l7.64-43.25c.04-.27.22-.4.49-.4h14.76c.31,0,.44.22.4.49l-12.02,62.47c-.04.27-.22.4-.49.4h-20.1c-.26,0-.44-.13-.49-.4l-7.07-36.49c-.09-.4-.44-.4-.53,0l-7.02,36.49c-.04.27-.22.4-.49.4h-20.1c-.26,0-.44-.13-.49-.4Z"></path>
        <path fill="#ffffff" d="M315.39,112.54v-12.33c0-.27.18-.44.44-.44h8.92c4.28,0,6.58-1.19,6.58-7.02v-42.68c0-.27.18-.44.44-.44h14.22c.27,0,.44.18.44.44v45.64c0,12.41-6.45,17.27-17.36,17.27h-13.25c-.27,0-.44-.18-.44-.44Z"></path>
        <path fill="#b8d0ed" d="M376.93,95c-.04-.31.18-.49.44-.49h6.01c.26,0,.4.13.44.4,1.11,8.88,8.17,13.47,17.58,13.47,10.03,0,15.81-5.21,15.81-13.39,0-9.98-8.17-10.6-17.41-11.49-10.21-1.06-21.3-2.47-21.3-16.17,0-11.57,8.75-18.82,21.78-18.82,12.06,0,20.59,6.14,21.87,17.58.04.31-.18.49-.44.49h-5.83c-.27,0-.4-.13-.44-.4-1.1-8.26-7.25-12.02-15.28-12.02-9.23,0-15.2,5.12-15.2,12.63,0,9.41,8,10.07,17.05,10.87,10.43,1.06,21.83,2.47,21.83,16.92,0,11.84-8.22,19.44-22.44,19.44s-23.15-6.89-24.48-19.04Z"></path>
        <path fill="#b8d0ed" d="M428.05,128.44v-4.73c0-.27.18-.44.44-.44h9.1c2.43,0,3.84-.13,4.86-2.25l1.02-2.69c1.24-2.83.62-4.29-.93-8.44l-14.93-39.98c-.09-.31.04-.53.35-.53h6.01c.22,0,.44.09.53.35l12.99,36.89c.13.35.49.35.62,0l12.99-36.89c.09-.27.31-.35.53-.35h5.96c.31,0,.44.22.35.53l-19.97,53.54c-1.46,4.06-3.53,5.43-7.86,5.43h-11.62c-.27,0-.44-.18-.44-.44Z"></path>
        <path fill="#b8d0ed" d="M468.47,99.5c-.09-.31.13-.49.4-.49h5.39c.27,0,.4.13.49.4,1.41,7.33,6.98,9.41,13.08,9.41,8.31,0,11.88-3.84,11.88-8.39,0-6.36-7.02-6.63-13.7-6.98-8.26-.4-16.83-2.39-16.83-11.75,0-7.91,6.76-13.25,17.49-13.25,9.06,0,17.01,3.84,18.38,14.05.04.31-.18.49-.44.49h-5.35c-.27,0-.4-.13-.49-.4-1.33-6.94-6.36-9.01-12.02-9.01-6.67,0-11.49,2.96-11.49,7.91,0,5.26,5.74,6.27,12.77,6.67,7.29.35,17.71.88,17.71,11.97,0,8.39-6.01,13.74-17.94,13.74-9.76,0-17.8-3.89-19.35-14.36Z"></path>
        <path fill="#b8d0ed" d="M517.82,105.65v-30.62c0-.27-.18-.44-.44-.44h-8.26c-.27,0-.44-.18-.44-.44v-4.33c0-.27.18-.44.44-.44h5.08c2.47,0,3.89-1.41,3.89-3.89v-9.32c0-.27.18-.44.44-.44h5.3c.26,0,.44.18.44.44v12.77c0,.27.18.44.44.44h8.22c.27,0,.44.18.44.44v4.33c0,.27-.18.44-.44.44h-8.22c-.27,0-.44.18-.44.44v29.11c0,2.34.84,3.18,3.18,3.18h5.48c.27,0,.44.18.44.44v4.77c0,.27-.18.44-.44.44h-7.78c-4.77,0-7.33-2.39-7.33-7.33Z"></path>
        <path fill="#b8d0ed" d="M535.67,91.15c0-13.56,8.66-22.71,21.12-22.71s19.97,8.53,20.01,22.53l-.09,1.72c0,.31-.18.44-.44.44h-33.93c-.26,0-.44.18-.4.49.8,9.32,6.27,14.98,14.53,14.98,5.92,0,10.65-2.61,12.94-9.23.09-.22.31-.35.53-.35h5.43c.31,0,.49.22.4.57-2.83,10.12-10.12,14.27-19.35,14.27-12.72,0-20.76-9.1-20.76-22.71ZM542.51,87.75h27.57c.27,0,.44-.18.4-.49-.84-8.35-6.01-13.52-13.61-13.52-8.13,0-13.52,5.26-14.76,13.52-.09.31.13.49.4.49Z"></path>
        <path fill="#b8d0ed" d="M583.82,112.54v-42.72c0-.27.18-.44.44-.44h5.04c.27,0,.44.13.49.4l.53,3.18c.04.35.31.49.57.18,2.65-2.87,6.63-4.68,11.84-4.68,5.57,0,10.03,1.94,12.5,5.65.22.27.44.27.62,0,2.96-3.71,7.51-5.65,13.47-5.65,9.85,0,15.42,5.3,15.42,14.67v29.42c0,.27-.18.44-.44.44h-5.57c-.27,0-.44-.18-.44-.44v-28.32c0-6.45-3.84-10.21-10.2-10.21s-10.6,4.11-10.6,10.96v27.57c0,.27-.18.44-.44.44h-5.52c-.27,0-.44-.18-.44-.44v-28.32c0-6.36-3.93-10.21-10.29-10.21s-10.51,3.62-10.51,10.96v27.57c0,.27-.18.44-.44.44h-5.57c-.27,0-.44-.18-.44-.44Z"></path>
        <path fill="#b8d0ed" d="M651.37,99.5c-.09-.31.13-.49.4-.49h5.39c.27,0,.4.13.49.4,1.41,7.33,6.98,9.41,13.08,9.41,8.31,0,11.88-3.84,11.88-8.39,0-6.36-7.02-6.63-13.7-6.98-8.26-.4-16.83-2.39-16.83-11.75,0-7.91,6.76-13.25,17.49-13.25,9.06,0,17.01,3.84,18.38,14.05.04.31-.18.49-.44.49h-5.35c-.27,0-.4-.13-.49-.4-1.33-6.94-6.36-9.01-12.02-9.01-6.67,0-11.49,2.96-11.49,7.91,0,5.26,5.74,6.27,12.77,6.67,7.29.35,17.71.88,17.71,11.97,0,8.39-6.01,13.74-17.94,13.74-9.76,0-17.8-3.89-19.35-14.36Z"></path>
      </g>
      <g>
        <path fill="#87b0e4" d="M70.42,121.76l-35.03-20.23v-40.45l35.03-20.23,35.03,20.23v40.45l-35.03,20.23ZM43.25,96.99l27.16,15.68,27.16-15.68v-31.37l-27.16-15.68-27.16,15.68v31.37Z"></path>
        <path fill="#2f5fa0" d="M113.21,119.03c-.02-.24-.03-.49-.05-.73-.98.09-2.05.17-3.2.24-1.48.1-3.03.2-4.65.37,0,.21.02.43.04.63.18,2.76.3,5.15.13,7.26,1.73-.17,3.41-.29,5.03-.4.98-.06,1.94-.13,2.9-.21.11-2.46-.05-4.89-.2-7.16Z"></path>
        <path fill="#87b0e4" d="M140.83,40.66v33.74c0,10.23-4.39,15.5-9.59,19.21-1.9,1.36-3.9,2.52-5.84,3.63-.31.17-.61.35-.92.53-3.64,2.1-7.02,4.2-9.33,7.57-2.48,3.62-2.31,7.96-1.99,12.96-.98.09-2.05.17-3.2.24-1.48.1-3.03.2-4.65.37-.37-5.75-.65-12.19,3.35-18.02,3.37-4.92,8.04-7.73,12.25-10.16.2-.11.39-.22.57-.33,2.3-1.32,4.38-2.51,6.11-3.89,3.3-2.64,5.37-5.94,5.37-12.11v-29.2L70.42,9.09,7.87,45.2v72.21l62.56,36.12c5.67-3.24,22.06-12.62,28.42-16.44,4.71-2.83,6.28-5.99,6.64-10.29,1.73-.17,3.41-.29,5.03-.4.98-.06,1.94-.13,2.9-.21-.28,6.21-2.28,12.71-10.5,17.65-7.78,4.68-30.31,17.53-30.54,17.66l-1.96,1.12L0,121.96V40.66L70.42,0l70.41,40.66Z"></path>
        <path fill="#b8d0ed" d="M131.24,93.6c-1.9,1.36-3.9,2.52-5.84,3.63-.31.17-.61.35-.92.53,2.45,5.28,3.32,9.39.89,13.98-2.63,4.95-5.89,5.99-12.21,6.56-.98.09-2.05.17-3.2.24-1.48.1-3.03.2-4.65.37-6.2.59-13.45,1.92-21.51,6.46-3.47,1.95-10.19,5.86-13.52,7.81l-44.92-25.93v-51.88l44.92-25.94,44.93,25.94v16.44c0,7.27,2.83,13.44,5.68,18.92.2-.11.39-.22.57-.33,2.3-1.32,4.38-2.51,6.11-3.89-2.38-4.64-4.49-9.45-4.49-14.7v-20.98l-52.8-30.49-52.8,30.49v60.97l52.81,30.5,1.98-1.16c.1-.06,10.73-6.28,15.38-8.91,6.52-3.67,12.43-4.86,17.81-5.42,1.73-.17,3.41-.29,5.03-.4.98-.06,1.94-.13,2.9-.21,7.44-.62,14.29-2.05,18.92-10.75,4.26-8.03,2.06-15.27-1.08-21.83Z"></path>
      </g>
    </g>
  </g>
</svg>