<?xml version="1.0" encoding="UTF-8"?>
<svg id="Layer_2" data-name="Layer 2" xmlns="http://www.w3.org/2000/svg" viewBox="0 0 656.58 152.08">
  
  <g id="Layer_1-2" data-name="Layer 1">
    <g>
      <g>
        <path fill="#ffffff" d="M182.46,104.18l21.03-62.51c.09-.22.31-.35.53-.35h17.67c.22,0,.44.13.53.35l21.03,62.51c.09.31-.04.49-.35.49h-15.02c-.22,0-.44-.13-.53-.35l-3.09-9.98c-.09-.22-.31-.35-.53-.35h-21.69c-.22,0-.44.13-.53.35l-3.09,9.98c-.09.22-.31.35-.53.35h-15.07c-.31,0-.44-.18-.35-.49ZM205.96,81.74h13.78c.31,0,.44-.18.35-.49l-6.98-22.35c-.13-.44-.4-.44-.53,0l-6.98,22.35c-.09.31.04.49.35.49Z"></path>
        <path fill="#ffffff" d="M254.96,104.27l-12.02-62.47c-.04-.27.09-.49.4-.49h14.75c.27,0,.44.13.49.4l7.6,43.52c.09.4.4.4.49,0l9.41-43.52c.04-.27.22-.4.49-.4h13.61c.26,0,.44.13.49.4l9.32,43.25c.09.4.4.4.49,0l7.64-43.25c.04-.27.22-.4.49-.4h14.76c.31,0,.44.22.4.49l-12.02,62.47c-.04.27-.22.4-.49.4h-20.1c-.26,0-.44-.13-.49-.4l-7.07-36.49c-.09-.4-.44-.4-.53,0l-7.02,36.49c-.04.27-.22.4-.49.4h-20.1c-.26,0-.44-.13-.49-.4Z"></path>
        <path fill="#ffffff" d="M324.8,104.23v-12.33c0-.27.18-.44.44-.44h8.92c4.28,0,6.58-1.19,6.58-7.02v-42.68c0-.27.18-.44.44-.44h14.22c.27,0,.44.18.44.44v45.64c0,12.41-6.45,17.27-17.36,17.27h-13.25c-.27,0-.44-.18-.44-.44Z"></path>
        <path fill="#5fd2cc" d="M386.34,86.69c-.04-.31.18-.49.44-.49h6.01c.26,0,.4.13.44.4,1.11,8.88,8.17,13.47,17.58,13.47,10.03,0,15.81-5.21,15.81-13.39,0-9.98-8.17-10.6-17.41-11.49-10.21-1.06-21.3-2.47-21.3-16.17,0-11.57,8.75-18.82,21.78-18.82,12.06,0,20.59,6.14,21.87,17.58.04.31-.18.49-.44.49h-5.83c-.27,0-.4-.13-.44-.4-1.1-8.26-7.25-12.02-15.28-12.02-9.23,0-15.2,5.12-15.2,12.63,0,9.41,8,10.07,17.05,10.87,10.43,1.06,21.83,2.47,21.83,16.92,0,11.84-8.22,19.44-22.44,19.44s-23.15-6.89-24.48-19.04Z"></path>
        <path fill="#5fd2cc" d="M478.81,61.51v42.72c0,.27-.18.44-.44.44h-5.04c-.27,0-.4-.09-.44-.4l-.53-3.89c-.04-.35-.31-.44-.57-.13-3.09,3.49-7.56,5.35-12.81,5.35-10.91,0-17.41-5.88-17.41-16.39v-27.7c0-.27.18-.44.44-.44h5.57c.26,0,.44.18.44.44v26.73c0,7.55,4.42,11.8,12.11,11.8s12.24-4.99,12.24-12.9v-25.62c0-.27.18-.44.44-.44h5.57c.27,0,.44.18.44.44Z"></path>
        <path fill="#5fd2cc" d="M486.05,91.19c-.09-.31.13-.49.4-.49h5.39c.27,0,.4.13.49.4,1.41,7.33,6.98,9.41,13.08,9.41,8.31,0,11.88-3.84,11.88-8.39,0-6.36-7.02-6.63-13.7-6.98-8.26-.4-16.83-2.39-16.83-11.75,0-7.91,6.76-13.25,17.49-13.25,9.06,0,17.01,3.84,18.38,14.05.04.31-.18.49-.44.49h-5.34c-.27,0-.4-.13-.49-.4-1.32-6.94-6.36-9.01-12.02-9.01-6.67,0-11.49,2.96-11.49,7.91,0,5.26,5.74,6.27,12.77,6.67,7.29.35,17.72.88,17.72,11.97,0,8.39-6.01,13.74-17.94,13.74-9.76,0-17.8-3.89-19.35-14.36Z"></path>
        <path fill="#5fd2cc" d="M535.4,97.33v-30.62c0-.27-.18-.44-.44-.44h-8.26c-.27,0-.44-.18-.44-.44v-4.33c0-.27.18-.44.44-.44h5.08c2.47,0,3.89-1.41,3.89-3.89v-9.32c0-.27.18-.44.44-.44h5.3c.26,0,.44.18.44.44v12.77c0,.27.18.44.44.44h8.22c.27,0,.44.18.44.44v4.33c0,.27-.18.44-.44.44h-8.22c-.27,0-.44.18-.44.44v29.11c0,2.34.84,3.18,3.18,3.18h5.48c.27,0,.44.18.44.44v4.77c0,.27-.18.44-.44.44h-7.78c-4.77,0-7.33-2.39-7.33-7.33Z"></path>
        <path fill="#5fd2cc" d="M553.51,92.47c0-7.91,6.05-13.03,16.08-13.03h16.26c.27,0,.44-.18.44-.44v-3.18c0-6.76-4.15-10.38-12.02-10.38-6.94,0-11.18,2.96-12.41,8.84-.04.27-.22.4-.49.4h-5.61c-.31,0-.44-.18-.4-.49,1.55-8.75,8-14.05,18.91-14.05s18.29,5.7,18.29,16.04v20.98c0,1.46.75,2.21,2.21,2.21h2.21c.27,0,.44.18.44.44v4.42c0,.27-.18.44-.44.44h-4.46c-3.67,0-5.74-1.59-6.01-5.04-.04-.4-.18-.49-.31-.27-3,4.15-8,6.18-14.98,6.18-10.91,0-17.72-4.9-17.72-13.08ZM586.38,86.25v-.97c0-.27-.18-.44-.44-.44h-15.86c-6.36,0-10.12,2.83-10.12,7.55s4.24,7.91,11.8,7.91c9.54,0,14.62-4.95,14.62-14.05Z"></path>
        <path fill="#5fd2cc" d="M603.13,49.84v-8.08c0-.27.18-.44.44-.44h6.8c.26,0,.44.18.44.44v8.08c0,.27-.18.44-.44.44h-6.8c-.26,0-.44-.18-.44-.44ZM603.74,104.23v-42.72c0-.27.18-.44.44-.44h5.57c.27,0,.44.18.44.44v42.72c0,.27-.18.44-.44.44h-5.57c-.27,0-.44-.18-.44-.44Z"></path>
        <path fill="#5fd2cc" d="M619.34,104.23v-42.72c0-.27.18-.44.44-.44h5.04c.26,0,.4.09.44.4l.53,3.89c.04.35.31.44.57.13,3.09-3.49,7.55-5.35,12.81-5.35,10.91,0,17.41,5.88,17.41,16.39v27.7c0,.27-.18.44-.44.44h-5.57c-.27,0-.44-.18-.44-.44v-26.73c0-7.55-4.42-11.8-12.1-11.8s-12.24,4.99-12.24,12.9v25.62c0,.27-.18.44-.44.44h-5.57c-.26,0-.44-.18-.44-.44Z"></path>
      </g>
      <g>
        <path fill="#5fd2cc" d="M76.04,117.16c-22.67,0-41.11-18.44-41.11-41.11s18.44-41.11,41.11-41.11,41.11,18.44,41.11,41.11-18.44,41.11-41.11,41.11ZM76.04,42.8c-18.33,0-33.24,14.91-33.24,33.24s14.91,33.24,33.24,33.24,33.24-14.91,33.24-33.24-14.91-33.24-33.24-33.24Z"></path>
        <path fill="#9ae3df" d="M137.9,86.68c-1.55,1.9-3.36,3.82-5.38,5.81,1.91,2.31,3.43,4.49,4.16,6.94,2.11-2.04,4.11-4.06,5.91-6.12-1.3-2.44-2.98-4.62-4.69-6.63Z"></path>
        <path fill="#9ae3df" d="M142.53,112.93c-5.55,11.89-14.85,21.69-26.43,28.5-11.58,6.82-25.43,10.66-40.07,10.66C34.11,152.08,0,117.97,0,76.04S34.11,0,76.03,0c19.68,0,38.75,7.9,53.71,22.21,8.74,8.37,9.49,16.33,7.63,23.32-.73,2.76-1.87,5.38-3.09,7.8-.65,1.33-1.33,2.6-1.98,3.81-2.33,4.35-4.53,8.44-4.53,12.06,0,6.04,3.87,10.39,7.97,15,.71.8,1.44,1.62,2.16,2.47-1.55,1.9-3.36,3.82-5.38,5.81-.83-.98-1.72-2-2.67-3.05-4.67-5.25-9.96-11.2-9.96-20.23,0-5.6,2.78-10.77,5.46-15.77.98-1.83,1.91-3.57,2.71-5.27,1.29-2.77,2.2-5.43,2.28-8.12.13-3.84-1.46-7.75-6.04-12.14-13.48-12.92-30.63-20.03-48.27-20.03C38.45,7.87,7.87,38.45,7.87,76.04s30.57,68.17,68.16,68.17c26.26,0,49.56-13.59,59.37-34.61,1.23-2.63,1.76-4.89,1.76-6.92,0-1.14-.17-2.22-.48-3.24,2.11-2.04,4.11-4.06,5.91-6.12,2.72,5.12,3.78,11.38-.06,19.62Z"></path>
        <path fill="#5fd2cc" d="M137.37,45.54c-.73,2.76-1.87,5.38-3.09,7.8,7.6,7.09,9.49,12.7,9.49,18.98,0,5.43-2.21,9.89-5.87,14.37-1.55,1.9-3.36,3.82-5.38,5.81-1.64,1.62-3.41,3.29-5.28,5.06-3.27,3.09-6.64,6.27-10.16,9.97-12.78,13.42-26.6,20.23-41.05,20.23-28.51,0-51.7-23.2-51.7-51.71s22.76-50.88,51.82-51.71c.31,0,.61,0,.93,0,10.86,0,21.47,5.33,29.57,10.02,9.16,5.31,16.13,9.82,21.41,13.81,1.29-2.77,2.2-5.43,2.28-8.12-5.34-3.84-11.87-7.95-19.74-12.51-9.23-5.35-21.52-11.42-34.68-11.07-33.34.94-59.46,27.12-59.46,59.57s26.72,59.58,59.57,59.58c8.34,0,16.45-1.9,24.26-5.69,7.81-3.79,15.32-9.45,22.49-16.98,3.38-3.54,6.68-6.66,9.87-9.67,1.38-1.3,2.72-2.57,4.03-3.84,2.11-2.04,4.11-4.06,5.91-6.12,5.37-6.12,9.05-12.57,9.05-20.99,0-9.89-3.87-17.85-14.28-26.78Z"></path>
      </g>
    </g>
  </g>
</svg>